/* XPM */
static char * monster_up_xpm[] = {
"24 30 63 1",
" 	c None",
".	c #41140B",
"+	c #272014",
"@	c #461A0E",
"#	c #4E1A0F",
"$	c #4D1B0D",
"%	c #4C1C11",
"&	c #4C1C12",
"*	c #4D1C12",
"=	c #4F1C11",
"-	c #511C0D",
";	c #4D1D12",
">	c #4D1D13",
",	c #511C11",
"'	c #521C10",
")	c #501D12",
"!	c #4D1E13",
"~	c #4D1E14",
"{	c #4E1E14",
"]	c #4E1E15",
"^	c #4E1F14",
"/	c #4E1F15",
"(	c #4E2015",
"_	c #4E2016",
":	c #4E2116",
"<	c #4F2116",
"[	c #4F2117",
"}	c #6A2612",
"|	c #742710",
"1	c #732913",
"2	c #7A280E",
"3	c #732A13",
"4	c #732A14",
"5	c #742A14",
"6	c #742B14",
"7	c #7B2A10",
"8	c #7B2A11",
"9	c #7C2A11",
"0	c #7B2B10",
"a	c #7C2B11",
"b	c #842C0F",
"c	c #842C10",
"d	c #852C0F",
"e	c #852C10",
"f	c #852D0F",
"g	c #852D10",
"h	c #46423A",
"i	c #44443C",
"j	c #514224",
"k	c #4B473D",
"l	c #58492E",
"m	c #654E26",
"n	c #6E5933",
"o	c #605F57",
"p	c #675F50",
"q	c #626258",
"r	c #64645A",
"s	c #66655B",
"t	c #6C6C62",
"u	c #9C7833",
"v	c #8A8A7E",
"w	c #C59840",
"x	c #D19B37",
"         %%%%%%&%&%     ",
"         {{^{{^{^{^     ",
"       >^:::_::<<<(/;   ",
"      *><<<_<<<<<<:(%   ",
"      ;><<<<<<<<<<<(%   ",
"      =@14346444445}'   ",
"      ,-cbbgfdddbce2.   ",
"      )$a770a7899aa|#   ",
"      *><[/:<<<[<~;!%   ",
"      *><<<<<<<<:/~~%   ",
"      *;_////////{~~%   ",
"      &;/~~~~~~~~!>>%   ",
"      &%&~~~~~~~~>%%%   ",
"     *{(/%%%%%%%%%%%    ",
"    ;~((/^/^^/^^^//^*   ",
"    %/:(~<::<<:<:_:(>>  ",
"    %(:(~:(:::<:<__<:>  ",
"    %/!%;__::::__!>::;  ",
"  >;/(!%;:::::_::!&;:/>;",
"  ;;/~!;;::::::::!%%^~>;",
"  >;&% ;%///(///(!% %**;",
"  ;lxj ;%%%%%%%%%%% %wu;",
" ;hpm+ >%((((((((!%& nj;",
"*osk>; ;%://////((!%  ;>",
"itq/%  ;%:~>>>>>^(^%    ",
"vr(    ;%:~;%%%%%^^%    ",
"/]     ;%({;%  %%%%%    ",
"       ;%;;>   %>>;%    ",
"      ;*%%%    %;>;%    ",
"      *%%%%    %%%%%    "};
