/* XPM */
static char * monster_diagonal_up_xpm[] = {
"30 30 154 2",
"  	c None",
". 	c #301613",
"+ 	c #371813",
"@ 	c #371913",
"# 	c #371914",
"$ 	c #3E1A14",
"% 	c #3E1A15",
"& 	c #3E1B15",
"* 	c #441C15",
"= 	c #441C16",
"- 	c #4C1A14",
"; 	c #441D17",
"> 	c #491E16",
", 	c #491E17",
"' 	c #491E18",
") 	c #4E1D15",
"! 	c #551C11",
"~ 	c #4E1F17",
"{ 	c #4E1F18",
"] 	c #4E2017",
"^ 	c #521F15",
"/ 	c #4E2018",
"( 	c #4E2019",
"_ 	c #4F2019",
": 	c #5C1D10",
"< 	c #4E2119",
"[ 	c #4F2119",
"} 	c #4F211A",
"| 	c #591F13",
"1 	c #4F221A",
"2 	c #4F221C",
"3 	c #4F231B",
"4 	c #50231A",
"5 	c #50231C",
"6 	c #50241C",
"7 	c #50241D",
"8 	c #50251D",
"9 	c #50251E",
"0 	c #51251D",
"a 	c #65200F",
"b 	c #51251E",
"c 	c #642110",
"d 	c #51261E",
"e 	c #652110",
"f 	c #51261F",
"g 	c #51271F",
"h 	c #512720",
"i 	c #69210F",
"j 	c #52271F",
"k 	c #522720",
"l 	c #522820",
"m 	c #522821",
"n 	c #532820",
"o 	c #6B220F",
"p 	c #38311C",
"q 	c #532A1A",
"r 	c #6B2414",
"s 	c #542B1B",
"t 	c #542C1C",
"u 	c #6E2515",
"v 	c #6C2715",
"w 	c #47322F",
"x 	c #752816",
"y 	c #782918",
"z 	c #7C2A13",
"A 	c #7E2A16",
"B 	c #782D1D",
"C 	c #7B2D1C",
"D 	c #7B2D1D",
"E 	c #7C2D1C",
"F 	c #7C2D1D",
"G 	c #7B2E1D",
"H 	c #7D2E1D",
"I 	c #85311D",
"J 	c #8A301B",
"K 	c #8D3016",
"L 	c #8A311D",
"M 	c #4F4324",
"N 	c #8B311D",
"O 	c #8C311D",
"P 	c #8A321D",
"Q 	c #8C321D",
"R 	c #8D321D",
"S 	c #8E321D",
"T 	c #504525",
"U 	c #8C341A",
"V 	c #923318",
"W 	c #8F341A",
"X 	c #8C351B",
"Y 	c #90351A",
"Z 	c #90351B",
"` 	c #91351A",
" .	c #91351B",
"..	c #93351A",
"+.	c #92361B",
"@.	c #97351A",
"#.	c #94361A",
"$.	c #983519",
"%.	c #95361A",
"&.	c #93371B",
"*.	c #973619",
"=.	c #95371B",
"-.	c #95371C",
";.	c #99361B",
">.	c #96371B",
",.	c #9A361A",
"'.	c #97371B",
").	c #98371A",
"!.	c #99371A",
"~.	c #9A371A",
"{.	c #9A371B",
"].	c #9B3719",
"^.	c #9B371A",
"/.	c #9B371B",
"(.	c #99381B",
"_.	c #514F4C",
":.	c #555352",
"<.	c #826C39",
"[.	c #7B7977",
"}.	c #807D7B",
"|.	c #868482",
"1.	c #9F8445",
"2.	c #888684",
"3.	c #A08847",
"4.	c #8D8B89",
"5.	c #908E8D",
"6.	c #918F8D",
"7.	c #918F8E",
"8.	c #9A9997",
"9.	c #B59A51",
"0.	c #BE9C51",
"a.	c #C2A054",
"b.	c #B4B4B2",
"c.	c #E1B760",
"d.	c #BCBCB9",
"e.	c #DBBA61",
"f.	c #BDBCBA",
"g.	c #DBBB62",
"h.	c #E2BA61",
"i.	c #E3BB62",
"j.	c #E4BB62",
"k.	c #E5BD63",
"l.	c #C1C1BF",
"m.	c #C2C1BF",
"n.	c #E3BF65",
"o.	c #C2C2C0",
"p.	c #E6C165",
"q.	c #C5C5C3",
"r.	c #C7C7C4",
"s.	c #C7C7C5",
"t.	c #C8C8C5",
"u.	c #C9C9C7",
"v.	c #CAC9C7",
"w.	c #CACAC7",
"                    d k k k k j k g g 0                     ",
"                  6 b g h g k h h k g ] = # .       +.W Z   ",
"                  b g h g h g g g g g & & & =       >.%. .  ",
"                n h h h g h h g g g f / ; , =     (.>.Y     ",
"                B D G H E F D F E C C y x u ! : e ).#.      ",
"                *.,.,.,.,.].,.,.^.,.^.,.$.K o i a ..        ",
"                ).!.~.~.~.~.~.~./.~.{.^.;.@.V z c   X U     ",
"                v I L P Q R R R O S N R R J A r |   &.`     ",
"                - j j g g g g g h h h h g 8 = = '   =.#.=.  ",
"                p.t 1 h h h h h h h h h h b = > /       -.'.",
"                i.q 1 g h k k h k k h k h b > > '           ",
"                n.s 1 h k k h k k h k k k b > , ,           ",
"                2 b h h h h k k h h h k 1 % > , '           ",
"                5 b d f g g g g 6 5 5 5 / % * = =           ",
"                  4 7 b b f h k / + + + + % =               ",
"                          ( = @ % % $ % % @                 ",
"                            ( > [ 1 1 1 1 1                 ",
"                                9 l l l l k h               ",
"f.w.w.                    g k j h k l l l k h h g           ",
"l.d.b.                    k h g 6 7 k k k h h g f           ",
"  6.5.r.s.u.4.|.        m k k h [ } k l l l k h d {         ",
"        8.7.q.t.v.2.    h h b * + ] k l k k h 3 < =         ",
"          [.l.o.m.}.:.p 3.1.<.) ^ % 0 b b b 8 [ ~ +         ",
"                  _.w M h.c.0.^ ^ ^ ^ ^ ^ ^ ^ ^ ^ ^         ",
"                    b T k.j.a.^ 1 6 6 6 6 6 6 5 1 *         ",
"                        e.g.9.^ 6 l l l l l k d 8 &         ",
"                              h g l l l l l l 5 [ ,         ",
"                      9 9 7 8 d 1 (           ~ , = =       ",
"                    k k h d b g 1             _ ( ( , =     ",
"                    d g h 1 ,                       = & %   "};
