/* XPM */
static char * monster_down_xpm[] = {
"29 30 164 2",
"  	c None",
". 	c #50251D",
"+ 	c #51251E",
"@ 	c #51261E",
"# 	c #50241C",
"$ 	c #51271F",
"% 	c #512720",
"& 	c #50241D",
"* 	c #50231B",
"= 	c #522720",
"- 	c #4F221A",
"; 	c #6A2112",
"> 	c #97321A",
", 	c #9B341C",
"' 	c #9C341C",
") 	c #9E351C",
"! 	c #9D351C",
"~ 	c #9B351D",
"{ 	c #9A341C",
"] 	c #822D18",
"^ 	c #5E2012",
"/ 	c #6B220F",
"( 	c #963519",
"_ 	c #99371A",
": 	c #9A371A",
"< 	c #9A381A",
"[ 	c #9B3719",
"} 	c #9B381A",
"| 	c #9B371A",
"1 	c #882F16",
"2 	c #692311",
"3 	c #692210",
"4 	c #963619",
"5 	c #983719",
"6 	c #9C391A",
"7 	c #9D3B1B",
"8 	c #9D3A1A",
"9 	c #9E3B1A",
"0 	c #9E3B1B",
"a 	c #9D391A",
"b 	c #9B391A",
"c 	c #883116",
"d 	c #6C2311",
"e 	c #4B1C13",
"f 	c #3D1810",
"g 	c #441911",
"h 	c #421A11",
"i 	c #431B11",
"j 	c #431A11",
"k 	c #461B11",
"l 	c #441B11",
"m 	c #441A11",
"n 	c #3C1710",
"o 	c #511E15",
"p 	c #491E16",
"q 	c #AC954D",
"r 	c #B3A074",
"s 	c #A09881",
"t 	c #4D1D15",
"u 	c #A29C89",
"v 	c #B3A076",
"w 	c #B1994D",
"x 	c #B1974B",
"y 	c #B7AB8F",
"z 	c #767268",
"A 	c #B8AF97",
"B 	c #B09758",
"C 	c #846E38",
"D 	c #4E1F17",
"E 	c #4F221B",
"F 	c #DEBA60",
"G 	c #E8CB94",
"H 	c #D1C5A7",
"I 	c #D5CCAE",
"J 	c #EACD93",
"K 	c #E5BD61",
"L 	c #E5BC61",
"M 	c #EAD9B4",
"N 	c #9A9585",
"O 	c #EEE0C0",
"P 	c #E2BC6B",
"Q 	c #A88A47",
"R 	c #4F2119",
"S 	c #DAB359",
"T 	c #DFB359",
"U 	c #CAAC59",
"V 	c #4D1C14",
"W 	c #A78846",
"X 	c #E5BE63",
"Y 	c #E6BE63",
"Z 	c #534624",
"` 	c #4D1D14",
" .	c #E3BB5F",
"..	c #E2B85E",
"+.	c #A68745",
"@.	c #50231C",
"#.	c #968548",
"$.	c #BC9F54",
"%.	c #DBB55D",
"&.	c #BC9C50",
"*.	c #BD9D50",
"=.	c #D0AC59",
"-.	c #E5BE64",
";.	c #E4BD62",
">.	c #C1A153",
",.	c #BD9D51",
"'.	c #C6A454",
").	c #E3BA60",
"!.	c #A28E4B",
"~.	c #756637",
"{.	c #9C8546",
"].	c #E6C365",
"^.	c #E6C467",
"/.	c #E7C467",
"(.	c #E6C367",
"_.	c #E6C468",
":.	c #E6C366",
"<.	c #E4C064",
"[.	c #4E4429",
"}.	c #4E2018",
"|.	c #52271F",
"1.	c #4E2019",
"2.	c #4E2119",
"3.	c #522820",
"4.	c #4F2219",
"5.	c #3D1A14",
"6.	c #431C15",
"7.	c #3D1A15",
"8.	c #51261F",
"9.	c #4E2017",
"0.	c #4F231B",
"a.	c #C1A051",
"b.	c #502317",
"c.	c #4F231A",
"d.	c #431C16",
"e.	c #C2A152",
"f.	c #C29F52",
"g.	c #856D38",
"h.	c #DDB660",
"i.	c #512518",
"j.	c #371713",
"k.	c #3D1A13",
"l.	c #3D1913",
"m.	c #E1B85F",
"n.	c #DFB55D",
"o.	c #9C7F42",
"p.	c #532922",
"q.	c #E1B960",
"r.	c #E2B960",
"s.	c #CAA656",
"t.	c #BEBEBC",
"u.	c #A7A6A4",
"v.	c #B7B7B6",
"w.	c #B9B8B6",
"x.	c #51251D",
"y.	c #CDCDCB",
"z.	c #848381",
"A.	c #7E7D7B",
"B.	c #CBCBC8",
"C.	c #B2B2AF",
"D.	c #BBBBB9",
"E.	c #B8B8B6",
"F.	c #AEADAC",
"G.	c #92918F",
"                      . + @ @ @ @ @ @ @ @ @               ",
"                    # @ $ $ $ $ $ $ % $ $ $ &             ",
"                    + $ $ $ $ $ $ $ $ $ $ $ @ &           ",
"                  * @ $ % % % % $ $ $ = $ = $ # -         ",
"                  ; > , ' ) ' ! ! ! ! ) ) ~ { ] ^         ",
"                  / ( _ : : < [ < } } < | } : 1 2         ",
"                  3 4 5 < 6 7 8 8 8 9 0 a b < c d         ",
"                  e f g h i j k l h h l k l m n o         ",
"                  p q r s t u v w x y z t A B C D         ",
"                  E F G H t I J K L M N t O P Q R         ",
"                  - S T U t V W X Y Z ` t  ...+.R         ",
"                  @.#.$.%.&.*.=.-.;.>.,.'.).!.~.R         ",
"                  @.# {.].^./.^.(.^._._.:.<.[.- }.        ",
"                    - & $ % = = = = % |.$ + 1.2.          ",
"                      . $ % % % % 3.% % . }.              ",
"                      R # * * # # # # # 4.5.              ",
"              + $ % 5.5.5.5.5.5.5.6.6.6.7.5.6.# 8.%       ",
"              + = = + + @ @ @ $ 8.8.$ @ $ @ + @ $ % #     ",
"              @ @   - + = % % % % % = % = % * # + $ # #   ",
"            % = @   9.# = 3.= 3.3.3.3.3.= % 1.}.  = 0.@.  ",
"            & - R   D # % % % % % = % % % $ }.9.  5.9.}.}.",
"            a.b.6.  6.R - - - - - - 0.c.c.- p d.  e.f.g.1.",
"            h.i.5.  j.j.j.j.j.j.j.k.l.j.k.j.j.j.  m.n.o.2.",
"            p.+ #   % % % $ $ % $ % % $ % % $ 8.  q.r.s.  ",
"        t.u.        % 3.3.3.3.3.3.3.3.3.= 3.$ %           ",
"        v.w.        $ = @ # $ $ $ $ $ x.. % $ +           ",
"      y.z.A.        % 3.& 2.          D - = % 0.j.}.      ",
"    B.C.          & @.0.-                 + 0.c.-         ",
"  D.E.u.          0.& @.                  # @.R 1.        ",
"y.F.G.                                                    "};
