/* XPM */
static char * monster_right_xpm[] = {
"26 30 153 2",
"  	c None",
". 	c #261311",
"+ 	c #2F1512",
"@ 	c #2F1513",
"# 	c #371813",
"$ 	c #371814",
"% 	c #3E1A15",
"& 	c #3E1B15",
"* 	c #4B180D",
"= 	c #431C15",
"- 	c #431C16",
"; 	c #471B15",
"> 	c #441C15",
", 	c #441C16",
"' 	c #4C1B11",
") 	c #521B0F",
"! 	c #491E16",
"~ 	c #4E1E15",
"{ 	c #4E1F17",
"] 	c #501F16",
"^ 	c #4E2017",
"/ 	c #521F15",
"( 	c #4E2018",
"_ 	c #4E2019",
": 	c #4F2019",
"< 	c #5C1D0D",
"[ 	c #4E2119",
"} 	c #4F2119",
"| 	c #4F211A",
"1 	c #542017",
"2 	c #4F221A",
"3 	c #4F221B",
"4 	c #4F231B",
"5 	c #4F231C",
"6 	c #631E0E",
"7 	c #50231C",
"8 	c #50241C",
"9 	c #50241D",
"0 	c #641F0F",
"a 	c #50241E",
"b 	c #51241C",
"c 	c #51241D",
"d 	c #651F0F",
"e 	c #661F0E",
"f 	c #50251D",
"g 	c #51251D",
"h 	c #65200F",
"i 	c #51251E",
"j 	c #51261E",
"k 	c #51261F",
"l 	c #69200E",
"m 	c #51271F",
"n 	c #512720",
"o 	c #52271F",
"p 	c #522720",
"q 	c #602418",
"r 	c #652312",
"s 	c #522820",
"t 	c #782B1C",
"u 	c #7E2A13",
"v 	c #7B2B15",
"w 	c #7C2B15",
"x 	c #7F2B14",
"y 	c #7B2C1D",
"z 	c #7A2D1D",
"A 	c #7F2D16",
"B 	c #7F2D17",
"C 	c #802D16",
"D 	c #7E2E18",
"E 	c #822D16",
"F 	c #7D2E1D",
"G 	c #7D2E1E",
"H 	c #7E2E1D",
"I 	c #7E2E1E",
"J 	c #822E16",
"K 	c #812E1A",
"L 	c #82301B",
"M 	c #83301B",
"N 	c #84301B",
"O 	c #84301C",
"P 	c #983519",
"Q 	c #993619",
"R 	c #9A3619",
"S 	c #9A3719",
"T 	c #9B3719",
"U 	c #9B371A",
"V 	c #9B381A",
"W 	c #585756",
"X 	c #5B5B5A",
"Y 	c #696340",
"Z 	c #6D643E",
"` 	c #6B653A",
" .	c #676564",
"..	c #6C683D",
"+.	c #746A3C",
"@.	c #6A6A69",
"#.	c #6B6A6A",
"$.	c #6B6B6A",
"%.	c #6D6C6B",
"&.	c #796F3F",
"*.	c #797041",
"=.	c #727272",
"-.	c #767575",
";.	c #767675",
">.	c #7C7C7B",
",.	c #858583",
"'.	c #878583",
").	c #868685",
"!.	c #888683",
"~.	c #8A8886",
"{.	c #8B8986",
"].	c #8B8A87",
"^.	c #8C8A88",
"/.	c #8D8B88",
"(.	c #BD9B50",
"_.	c #CBA956",
":.	c #CCA956",
"<.	c #D0AB57",
"[.	c #CAAD65",
"}.	c #B2B2B0",
"|.	c #D2AF5F",
"1.	c #CAB37B",
"2.	c #DCB25C",
"3.	c #D9B660",
"4.	c #DEB55D",
"5.	c #DFB55D",
"6.	c #DFB65D",
"7.	c #DDB760",
"8.	c #DDB860",
"9.	c #E1BA60",
"0.	c #D4BD85",
"a.	c #D0BE8F",
"b.	c #E5BD63",
"c.	c #C1C2C0",
"d.	c #C2C3C1",
"e.	c #C3C3C2",
"f.	c #E4C166",
"g.	c #C3C4C2",
"h.	c #C3C4C3",
"i.	c #E7C266",
"j.	c #C4C5C3",
"k.	c #C5C5C3",
"l.	c #C5C6C4",
"m.	c #C6C6C4",
"n.	c #E8C467",
"o.	c #C6C7C5",
"p.	c #D9C691",
"q.	c #C7C8C5",
"r.	c #C7C8C6",
"s.	c #C8C8C6",
"t.	c #C9C9C7",
"u.	c #CACAC7",
"v.	c #D0D0CF",
"        m n p p p p s p p p p o                     ",
"        m p p p p p p p p p p m                     ",
"      i m p n n p p p p p p p n j c                 ",
"      i k k k k k n n n n n n k k b                 ",
"      t y F H H F F I G I I G I z q ;               ",
"  d l P Q Q R R R R R T T T U R Q u 6               ",
"  0 e Q Q R Q S Q Q S U V V V S Q x h               ",
"    < K N O M L L D w A J E C B v r )               ",
"      i k k k k k 2 / / / / / / / / /               ",
"  , % m m n n n m i 7 f.9.3./ / 0.1.1 [             ",
"  , % k k m k k k j 9 n.b.7./ / p.a.] (             ",
"  > ! j j m n m m k 9 i.b.8./ / |.[.|               ",
"  % % ^ 8 m m n m m i *.&.+.4 4 Z Y 7               ",
"  # # # } 7 7 m n m m n p m k k g i 7               ",
"( # ~ $ # + + m n m n n n m k i i i                 ",
"% $ @       # } } } } } : [ _                       ",
"& , %       { ^ ( ( } ( } } _                       ",
"      i i i i k k k m n m k i                       ",
"    i j k 4 > j m m n n n m i                       ",
"    n k i } ' j n n n n n m i                       ",
"    m i * * . j m n n n n m i                       ",
"    k k * * # m k n n n n n i     ,.c.d.h.j.e.g.j.k.",
"    ..` * * * * X @.#.$.$.@.=.   .).l.o.o.o.o.o.r.v.",
"  :.4.2.* * * * }.u.t.s.u.u.q.m.@.W '.!.~.^./.].{.  ",
"  _.6.5.* * * * %.-.-.-.;.;.>.                      ",
"    <.(.* * * * 8 i j f k n j                       ",
"      { { ( _ 5 7 9 i 8 i k i                       ",
"3 2 } ! ! =             i n i                       ",
"2 2 2 = -               i k i                       ",
"} } }                   a i 9 2                     "};
