/* XPM */
static char * monster_diagonal_down_xpm[] = {
"27 30 90 1",
" 	c None",
".	c #3C1409",
"+	c #401609",
"@	c #4D190B",
"#	c #4E1A0C",
"$	c #4D1E15",
"%	c #4E2017",
"&	c #4F2016",
"*	c #4B2123",
"=	c #4E2118",
"-	c #4E2119",
";	c #4F2118",
">	c #4F2119",
",	c #4F2218",
"'	c #4F2219",
")	c #4F221A",
"!	c #502219",
"~	c #50221A",
"{	c #4F2222",
"]	c #4F2319",
"^	c #4F231A",
"/	c #502319",
"(	c #50231A",
"_	c #50231B",
":	c #502321",
"<	c #50241A",
"[	c #50241B",
"}	c #50241C",
"|	c #51241C",
"1	c #60210D",
"2	c #50251C",
"3	c #51261E",
"4	c #64230F",
"5	c #6B250D",
"6	c #6D2812",
"7	c #7A2911",
"8	c #782A11",
"9	c #7A2B10",
"0	c #772C14",
"a	c #7B2B13",
"b	c #7B2C13",
"c	c #7D2C13",
"d	c #7B2D11",
"e	c #7D2D13",
"f	c #7D2D15",
"g	c #7B2E15",
"h	c #7C2E14",
"i	c #7C2E15",
"j	c #6E321C",
"k	c #7D2E15",
"l	c #7E2E14",
"m	c #7E2E15",
"n	c #7D2F15",
"o	c #7A3015",
"p	c #7D2F16",
"q	c #7E2F13",
"r	c #7E2F14",
"s	c #7E2F15",
"t	c #7F2F15",
"u	c #7E3016",
"v	c #832F14",
"w	c #803017",
"x	c #7E3118",
"y	c #813118",
"z	c #803216",
"A	c #733624",
"B	c #8D341A",
"C	c #8B371B",
"D	c #7B7872",
"E	c #827B6E",
"F	c #B89644",
"G	c #D8A54F",
"H	c #B4ABA3",
"I	c #D7A753",
"J	c #D9A750",
"K	c #B4ADA4",
"L	c #B5ADA4",
"M	c #B6AFA4",
"N	c #B7AFA6",
"O	c #C9B25E",
"P	c #C9B359",
"Q	c #BAB2AA",
"R	c #CCB55D",
"S	c #E4B44D",
"T	c #E4B550",
"U	c #E4B64E",
"V	c #E5B750",
"W	c #E6B84F",
"X	c #E6B951",
"Y	c #FFFFFF",
"         '([)]'(           ",
"        (](}(('_(      jy9 ",
"       (]']2('(<!$$   udx  ",
"       =%;>--)>')$$   p    ",
"      tceqpics7r856# 14    ",
"      slfchamzrnwk0@.+k    ",
"      ,[(!~<((!]';'$  Bvg  ",
"      PS'(T{)''(')($   AobC",
"      OX)_U:',(!(~'$       ",
"      RV['W*;[''($$        ",
"       )(!](']'[($$        ",
"        /((!(^($$$         ",
"         $$$$$$$$          ",
"           $$$$$>^!]$      ",
"           '('(^'(_~!      ",
"          $(;('('~)<^''    ",
"         $$$)&_!'$$((')$   ",
"         $$$~__''$$|!'($   ",
"        ;_$ (![<![$  ''$   ",
"       ];$$ $(((()$  $$$   ",
"      JG$$  $$$$$$$  $$$$  ",
"     'YIF   [('((($$$      ",
"    M(3    )'_''^[,('      ",
"   NQ     '2(}$  ,[^;$$    ",
" DLE     '()$$$  $$$_$$    ",
"KH       })'$      $[]>$   ",
"         ><$       $$$$$$  ",
"         $$           $$$$ ",
"        $$$             $$ ",
"       $$$$            $$  "};
