/* XPM */
static char * cursor_xpm[] = {
"11 14 7 1",
" 	c None",
".	c #000000",
"+	c #4E4D4D",
"@	c #7F7F7F",
"#	c #C4C4C4",
"$	c #E5E5E5",
"%	c #FFFFFF",
"  ..       ",
"  .$.      ",
"  .%.      ",
"  .%....   ",
"  .%.#.#.. ",
"  .%+%+%.#.",
"..+%@%@%+%.",
".$@%%%%%%%.",
".#$%%%%%%#.",
" .#$%%%%%@.",
"  .@#$$#@. ",
"   .+@@@+. ",
"   .@###@. ",
"   ....... "};
