/* XPM */
static char * exit_xpm[] = {
"97 51 6 1",
" 	c None",
".	c #000000",
"+	c #E12B16",
"@	c #FFFFFF",
"#	c #FBEFBE",
"$	c #700000",
"       ...................................................................................       ",
"      .....................................................................................      ",
"      .....................................................................................      ",
"      ...++++++++++++++++++++++++++++++++++++++++++++++++++++++++++++++++++++++++++++......      ",
"   ....+++++++++++++++++++++++++++++++++++++++++++++++++++++++++++++++++++++++++++++++++++....   ",
"   ....+++++++++++++++++++++++++++++++++++++++++++++++++++++++++++++++++++++++++++++++++++....   ",
"   ....+++++++++++++++++++++++++++++++++++++++++++++++++++++++++++++++++++++++++++++++++++....   ",
"....++++++++++++++++++++++++++++++++++++++++++++++++++++++++++++++++++++++++++++++++++++++.......",
"....+++++++++++++++++++@@@@@@@@@+@@@++++++++@@@+@@@@@@@@@@@+@@@@@@@@@@@@@@@+++++++++++++++###....",
"....+++++++++++++++++++@@@@@@@@@+@@@++++++++@@@+@@@@@@@@@@@+@@@@@@@@@@@@@@@+++++++++++++++###....",
"....+++++++++++++++++++@@@@@@@@@+@@@++++++++@@@+@@@@@@@@@@@+@@@@@@@@@@@@@@@+++++++++++++++###....",
"....+++++++++++++++++++@@@+++++++@@@++++++++@@@+++++@@@+++++++++++@@@+++++++++++++++++++++###....",
"....+++++++++++++++++++@@@+++++++@@@++++++++@@@+++++@@@+++++++++++@@@+++++++++++++++++++++###....",
"....+++++++++++++++++++@@@+++++++@@@@@++++@@@@@+++++@@@+++++++++++@@@+++++++++++++++++++++###....",
"....+++++++++++++++++++@@@++++++++@@@@++++@@@@++++++@@@+++++++++++@@@+++++++++++++++++++++###....",
"....+++++++++++++++++++@@@++++++++@@@@@@@@@@@@++++++@@@+++++++++++@@@+++++++++++++++++++++###....",
"....+++++++++++++++++++@@@@@++++++++@@@@@@@@++++++++@@@+++++++++++@@@+++++++++++++++++++++###....",
"....+++++++++++++++++++@@@@@++++++++@@@@@@@@++++++++@@@+++++++++++@@@+++++++++++++++++++++###....",
"....+++++++++++++++++++@@@@@++++++++++@@@@++++++++++@@@+++++++++++@@@+++++++++++++++++++++###....",
"....+++++++++++++++++++@@@++++++++++++@@@@++++++++++@@@+++++++++++@@@+++++++++++++++++++++###....",
"....+++++++++++++++++++@@@++++++++++@@@@@@@@++++++++@@@+++++++++++@@@+++++++++++++++++++++###....",
"....+++++++++++++++++++@@@++++++++@@@@@@@@@@@@++++++@@@+++++++++++@@@+++++++++++++++++++++###....",
"....+++++++++++++++++++@@@++++++++@@@@@@@@@@@@++++++@@@+++++++++++@@@+++++++++++++++++++++###....",
"....+++++++++++++++++++@@@+++++++@@@@@++++@@@@@+++++@@@+++++++++++@@@+++++++++++++++++++++###....",
"....+++++++++++++++++++@@@+++++++@@@++++++++@@@+++++@@@+++++++++++@@@+++++++++++++++++++++###....",
"....+++++++++++++++++++@@@+++++++@@@++++++++@@@+++++@@@+++++++++++@@@+++++++++++++++++++++###....",
"....+++++++++++++++++++@@@@@@@@@+@@@++++++++@@@+@@@@@@@@@@@+++++++@@@+++++++++++++++++++++###....",
"....+++++++++++++++++++@@@@@@@@@+@@@++++++++@@@+@@@@@@@@@@@+++++++@@@+++++++++++++++++++++###....",
"....+++++++++++++++++++@@@@@@@@@+@@@++++++++@@@+@@@@@@@@@@@+++++++@@@+++++++++++++++++++++###....",
"....++++++++++++++++++++++++++++++++++++++++++++++++++++++++++++++++++++++++++++++++++++++###....",
"....++++++++++++++++++++++++++++++++++++++++++++++++++++++++++++++++++++++++++++++++++++++###....",
"....###+++++++++++++++++++++++++++++++++++++++++++++++++++++++++++++++++++++++++++++++++++###....",
"....###+++++++++++++++++++++++++++++++++++++++++++++++++++++++++++++++++++++++++++++++++++###....",
"....###+++++++++++++++++++++++++++++++++++++++++++++++++++++++++++++++++++++++++++++++++++###....",
"....#########################################################################################....",
"....$$$###################################################################################$$$....",
"....$$$###################################################################################$$$....",
"....$$$###################################################################################$$$....",
"....$$$$$$$$$$$$$$$$$$$$$$$$$$$$$$$$$$$$$$$$$$$$$$$$$$$$$$$$$$$$$$$$$$$$$$$$$$$$$$$$$$$$$$$$$....",
"....$$$$$$$$$$$$$$$$$$$$$$$$$$$$$$$$$$$$$$$$$$$$$$$$$$$$$$$$$$$$$$$$$$$$$$$$$$$$$$$$$$$$$$$$$....",
"....$$$$$$$$$$$$$$$$$$$$$$$$$$$$$$$$$$$$$$$$$$$$$$$$$$$$$$$$$$$$$$$$$$$$$$$$$$$$$$$$$$$$$$$$$....",
"....$$$$$$$$$$$$$$$$$$$$$$$$$$$$$$$$$$$$$$$$$$$$$$$$$$$$$$$$$$$$$$$$$$$$$$$$$$$$$$$$$$$$$$$$$....",
"....$$$$$$$$$$$$$$$$$$$$$$$$$$$$$$$$$$$$$$$$$$$$$$$$$$$$$$$$$$$$$$$$$$$$$$$$$$$$$$$$$$$$$$$$$....",
"....$$$$$$$$$$$$$$$$$$$$$$$$$$$$$$$$$$$$$$$$$$$$$$$$$$$$$$$$$$$$$$$$$$$$$$$$$$$$$$$$$$$$$$$$$....",
"......$$$$$$$$$$$$$$$$$$$$$$$$$$$$$$$$$$$$$$$$$$$$$$$$$$$$$$$$$$$$$$$$$$$$$$$$$$$$$$$$$$$$$$$....",
"   ....$$$$$$$$$$$$$$$$$$$$$$$$$$$$$$$$$$$$$$$$$$$$$$$$$$$$$$$$$$$$$$$$$$$$$$$$$$$$$$$$$$$....   ",
"   ....$$$$$$$$$$$$$$$$$$$$$$$$$$$$$$$$$$$$$$$$$$$$$$$$$$$$$$$$$$$$$$$$$$$$$$$$$$$$$$$$$$$....   ",
"   ...........................................................................................   ",
"       ....................................................................................      ",
"       ....................................................................................      ",
"       ....................................................................................      "};
