/* XPM */
static char * exit_selected_xpm[] = {
"93 51 6 1",
" 	c None",
".	c #FFFFFF",
"+	c #000000",
"@	c #E12B16",
"#	c #FBEFBE",
"$	c #700000",
"      .................................................................................      ",
"      .................................................................................      ",
"      ..+++++++++++++++++++++++++++++++++++++++++++++++++++++++++++++++++++++++++++++..      ",
"      ..+++++++++++++++++++++++++++++++++++++++++++++++++++++++++++++++++++++++++++++..      ",
"   .....+++++++++++++++++++++++++++++++++++++++++++++++++++++++++++++++++++++++++++++.....   ",
"   .....++@@@@@@@@@@@@@@@@@@@@@@@@@@@@@@@@@@@@@@@@@@@@@@@@@@@@@@@@@@@@@@@@@@@@@@+++++.....   ",
".....+++@@@@@@@@@@@@@@@@@@@@@@@@@@@@@@@@@@@@@@@@@@@@@@@@@@@@@@@@@@@@@@@@@@@@@@@@@@@@@+++.....",
".....+++@@@@@@@@@@@@@@@@@@@@@@@@@@@@@@@@@@@@@@@@@@@@@@@@@@@@@@@@@@@@@@@@@@@@@@@@@@@@@+++.....",
"..++++@@@@@@@@@@@@@@@@@@@@@@@@@@@@@@@@@@@@@@@@@@@@@@@@@@@@@@@@@@@@@@@@@@@@@@@@@@@@@@@++++++..",
"..++++@@@@@@@@@@@@@@@@@........@...@@@@@@@...@..........@..............@@@@@@@@@@@@@@##++++..",
"..++++@@@@@@@@@@@@@@@@@........@...@@@@@@@...@..........@..............@@@@@@@@@@@@@@##++++..",
"..++++@@@@@@@@@@@@@@@@@........@...@@@@@@@...@..........@..............@@@@@@@@@@@@@@##++++..",
"..++++@@@@@@@@@@@@@@@@@...@@@@@@...@@@@@@@...@@@@@..@@@@@@@@@@@..@@@@@@@@@@@@@@@@@@@@##++++..",
"..++++@@@@@@@@@@@@@@@@@...@@@@@@...@@@@@@@...@@@@@..@@@@@@@@@@@..@@@@@@@@@@@@@@@@@@@@##++++..",
"..++++@@@@@@@@@@@@@@@@@...@@@@@@.....@@@@....@@@@@..@@@@@@@@@@@..@@@@@@@@@@@@@@@@@@@@##++++..",
"..++++@@@@@@@@@@@@@@@@@...@@@@@@@....@@@@...@@@@@@..@@@@@@@@@@@..@@@@@@@@@@@@@@@@@@@@##++++..",
"..++++@@@@@@@@@@@@@@@@@...@@@@@@@...........@@@@@@..@@@@@@@@@@@..@@@@@@@@@@@@@@@@@@@@##++++..",
"..++++@@@@@@@@@@@@@@@@@.....@@@@@@@.......@@@@@@@@..@@@@@@@@@@@..@@@@@@@@@@@@@@@@@@@@##++++..",
"..++++@@@@@@@@@@@@@@@@@.....@@@@@@@.......@@@@@@@@..@@@@@@@@@@@..@@@@@@@@@@@@@@@@@@@@##++++..",
"..++++@@@@@@@@@@@@@@@@@.....@@@@@@@@@....@@@@@@@@@..@@@@@@@@@@@..@@@@@@@@@@@@@@@@@@@@##++++..",
"..++++@@@@@@@@@@@@@@@@@...@@@@@@@@@.......@@@@@@@@..@@@@@@@@@@@..@@@@@@@@@@@@@@@@@@@@##++++..",
"..++++@@@@@@@@@@@@@@@@@...@@@@@@@...........@@@@@@..@@@@@@@@@@@..@@@@@@@@@@@@@@@@@@@@##++++..",
"..++++@@@@@@@@@@@@@@@@@...@@@@@@@...........@@@@@@..@@@@@@@@@@@..@@@@@@@@@@@@@@@@@@@@##++++..",
"..++++@@@@@@@@@@@@@@@@@...@@@@@@.....@@@@....@@@@@..@@@@@@@@@@@..@@@@@@@@@@@@@@@@@@@@##++++..",
"..++++@@@@@@@@@@@@@@@@@...@@@@@@...@@@@@@@...@@@@@..@@@@@@@@@@@..@@@@@@@@@@@@@@@@@@@@##++++..",
"..++++@@@@@@@@@@@@@@@@@...@@@@@@...@@@@@@@...@@@@@..@@@@@@@@@@@..@@@@@@@@@@@@@@@@@@@@##++++..",
"..++++@@@@@@@@@@@@@@@@@........@...@@@@@@@...@..........@@@@@@@..@@@@@@@@@@@@@@@@@@@@##++++..",
"..++++@@@@@@@@@@@@@@@@@........@...@@@@@@@...@..........@@@@@@@..@@@@@@@@@@@@@@@@@@@@##++++..",
"..++++@@@@@@@@@@@@@@@@@........@...@@@@@@@...@..........@@@@@@@..@@@@@@@@@@@@@@@@@@@@##++++..",
"..++++@@@@@@@@@@@@@@@@@@@@@@@@@@@@@@@@@@@@@@@@@@@@@@@@@@@@@@@@@@@@@@@@@@@@@@@@@@@@@@@##++++..",
"..++++@@@@@@@@@@@@@@@@@@@@@@@@@@@@@@@@@@@@@@@@@@@@@@@@@@@@@@@@@@@@@@@@@@@@@@@@@@@@@@@##++++..",
"..++++##@@@@@@@@@@@@@@@@@@@@@@@@@@@@@@@@@@@@@@@@@@@@@@@@@@@@@@@@@@@@@@@@@@@@@@@@@@@@@##++++..",
"..++++##@@@@@@@@@@@@@@@@@@@@@@@@@@@@@@@@@@@@@@@@@@@@@@@@@@@@@@@@@@@@@@@@@@@@@@@@@@@@@##++++..",
"..++++#################################################################################++++..",
"..++++$$#############################################################################$$++++..",
"..++++$$#############################################################################$$++++..",
"..++++$$#############################################################################$$++++..",
"..++++$$$$$$$$$$$$$$$$$$$$$$$$$$$$$$$$$$$$$$$$$$$$$$$$$$$$$$$$$$$$$$$$$$$$$$$$$$$$$$$$$++++..",
"..++++$$$$$$$$$$$$$$$$$$$$$$$$$$$$$$$$$$$$$$$$$$$$$$$$$$$$$$$$$$$$$$$$$$$$$$$$$$$$$$$$$++++..",
"..++++$$$$$$$$$$$$$$$$$$$$$$$$$$$$$$$$$$$$$$$$$$$$$$$$$$$$$$$$$$$$$$$$$$$$$$$$$$$$$$$$$++++..",
"..++++$$$$$$$$$$$$$$$$$$$$$$$$$$$$$$$$$$$$$$$$$$$$$$$$$$$$$$$$$$$$$$$$$$$$$$$$$$$$$$$$$++++..",
"..++++$$$$$$$$$$$$$$$$$$$$$$$$$$$$$$$$$$$$$$$$$$$$$$$$$$$$$$$$$$$$$$$$$$$$$$$$$$$$$$$$$++++..",
"..++++$$$$$$$$$$$$$$$$$$$$$$$$$$$$$$$$$$$$$$$$$$$$$$$$$$$$$$$$$$$$$$$$$$$$$$$$$$$$$$$$$++++..",
".....+++$$$$$$$$$$$$$$$$$$$$$$$$$$$$$$$$$$$$$$$$$$$$$$$$$$$$$$$$$$$$$$$$$$$$$$$$$$$$$+++.....",
".....+++$$$$$$$$$$$$$$$$$$$$$$$$$$$$$$$$$$$$$$$$$$$$$$$$$$$$$$$$$$$$$$$$$$$$$$$$$$$$$+++.....",
"   ..+++++++++++++++++++++++++++++++++++++++++++++++++++++++++++++++++++++++++++++++++++..   ",
"   .....+++++++++++++++++++++++++++++++++++++++++++++++++++++++++++++++++++++++++++++.....   ",
"   .....+++++++++++++++++++++++++++++++++++++++++++++++++++++++++++++++++++++++++++++.....   ",
"      ..+++++++++++++++++++++++++++++++++++++++++++++++++++++++++++++++++++++++++++++..      ",
"      .................................................................................      ",
"      .................................................................................      "};
