/* XPM */
static char * new_game_xpm[] = {
"121 51 6 1",
" 	c None",
".	c #000000",
"+	c #41C4EB",
"@	c #C4EDF9",
"#	c #FFFFFF",
"$	c #095CC7",
"       ...........................................................................................................       ",
"      .............................................................................................................      ",
"      .............................................................................................................      ",
"      ...++++++++++++++++++++++++++++++++++++++++++++++++++++++++++++++++++++++++++++++++++++++++++++++++++++......      ",
"   ....+++++++++++++++++++++++++++++++++++++++++++++++++++++++++++++++++++++++++++++++++++++++++++++++++++++++++++....   ",
"   ....+++++++++++++++++++++++++++++++++++++++++++++++++++++++++++++++++++++++++++++++++++++++++++++++++++++++++++....   ",
"   ....+++++++++++++++++++++++++++++++++++++++++++++++++++++++++++++++++++++++++++++++++++++++++++++++++++++++++++....   ",
"....++++++++++++++++++++++++++++++++++++++++++++++++++++++++++++++++++++++++++++++++++++++++++++++++++++++++++++++.......",
"....++++++++++++++++++++++++++++++++++++++++++++++++++++++++++++++++++++++++++++++++++++++++++++++++++++++++++++++@@@....",
"....++++++++++++++++++++++++++++++++++++++++++++++++++++++++++++++++++++++++++++++++++++++++++++++++++++++++++++++@@@....",
"....+++++########++++#########+###++++++++++++###+++++++##########++++#######+++########+++######++++#########++++@@@....",
"....+++++########++++#########+###++++++++++++###++++++############+++#######+++########+++######++++#########++++@@@....",
"....+++++########++++#########+###++++++++++++###++++++############++#########++########+++######++++#########++++@@@....",
"....+++++###+++++###+###+++++++###++++++++++++###++++++###++++++###++###+++###++###+++++###++++++###+###++++++++++@@@....",
"....+++++###+++++###+###+++++++###++++++++++++###++++++###++++++++++####+++####+###+++++###++++++###+###++++++++++@@@....",
"....+++++###+++++###+###+++++++###++++++++++++###++++++###++++++++++###+++++###+###+++++###++++++###+###++++++++++@@@....",
"....+++++###+++++###+###+++++++###++++++++++++###++++++###++++++++++###+++++###+###+++++###++++++###+###++++++++++@@@....",
"....+++++###+++++###+###+++++++###++++++++++++###++++++###++++++++++###+++++###+###+++++###++++++###+###++++++++++@@@....",
"....+++++###+++++###+#####+++++###++++++++++++###++++++###++++++++++###+++++###+###+++++###++++++###+#####++++++++@@@....",
"....+++++###+++++###+#####+++++###++++++++++++###++++++###++++++++++###+++++###+###+++++###++++++###+#####++++++++@@@....",
"....+++++###+++++###+#####+++++###++++++++++++###++++++###+++######+###########+###+++++###++++++###+#####++++++++@@@....",
"....+++++###+++++###+###+++++++###+++++##+++++###++++++###+++######+###########+###+++++###++++++###+###++++++++++@@@....",
"....+++++###+++++###+###+++++++###+++++##+++++###++++++###+++######+###########+###+++++###++++++###+###++++++++++@@@....",
"....+++++###+++++###+###+++++++###+++++##+++++###++++++###++++++###+###+++++###+###+++++###++++++###+###++++++++++@@@....",
"....+++++###+++++###+###+++++++###+++######+++###++++++###++++++###+###+++++###+###+++++###++++++###+###++++++++++@@@....",
"....+++++###+++++###+###+++++++###+++######+++###++++++###++++++###+###+++++###+###+++++###++++++###+###++++++++++@@@....",
"....+++++###+++++###+###+++++++###+++######+++###++++++###++++++###+###+++++###+###+++++###++++++###+###++++++++++@@@....",
"....+++++###+++++###+#########+########++########++++++############+###+++++###+###+++++###++++++###+#########++++@@@....",
"....+++++###+++++###+#########++#######++#######+++++++############+###+++++###+###+++++###++++++###+#########++++@@@....",
"....+++++###+++++###+#########++#######++#######++++++++##########++###+++++###+###+++++###++++++###+#########++++@@@....",
"....++++++++++++++++++++++++++++++++++++++++++++++++++++++++++++++++++++++++++++++++++++++++++++++++++++++++++++++@@@....",
"....@@@+++++++++++++++++++++++++++++++++++++++++++++++++++++++++++++++++++++++++++++++++++++++++++++++++++++++++++@@@....",
"....@@@+++++++++++++++++++++++++++++++++++++++++++++++++++++++++++++++++++++++++++++++++++++++++++++++++++++++++++@@@....",
"....@@@+++++++++++++++++++++++++++++++++++++++++++++++++++++++++++++++++++++++++++++++++++++++++++++++++++++++++++@@@....",
"....@@@@@@@@@@@@@@@@@@@@@@@@@@@@@@@@@@@@@@@@@@@@@@@@@@@@@@@@@@@@@@@@@@@@@@@@@@@@@@@@@@@@@@@@@@@@@@@@@@@@@@@@@@@@@@@@@....",
"....$$$@@@@@@@@@@@@@@@@@@@@@@@@@@@@@@@@@@@@@@@@@@@@@@@@@@@@@@@@@@@@@@@@@@@@@@@@@@@@@@@@@@@@@@@@@@@@@@@@@@@@@@@@@@@$$$....",
"....$$$@@@@@@@@@@@@@@@@@@@@@@@@@@@@@@@@@@@@@@@@@@@@@@@@@@@@@@@@@@@@@@@@@@@@@@@@@@@@@@@@@@@@@@@@@@@@@@@@@@@@@@@@@@@$$$....",
"....$$$@@@@@@@@@@@@@@@@@@@@@@@@@@@@@@@@@@@@@@@@@@@@@@@@@@@@@@@@@@@@@@@@@@@@@@@@@@@@@@@@@@@@@@@@@@@@@@@@@@@@@@@@@@@$$$....",
"....$$$$$$$$$$$$$$$$$$$$$$$$$$$$$$$$$$$$$$$$$$$$$$$$$$$$$$$$$$$$$$$$$$$$$$$$$$$$$$$$$$$$$$$$$$$$$$$$$$$$$$$$$$$$$$$$$....",
"....$$$$$$$$$$$$$$$$$$$$$$$$$$$$$$$$$$$$$$$$$$$$$$$$$$$$$$$$$$$$$$$$$$$$$$$$$$$$$$$$$$$$$$$$$$$$$$$$$$$$$$$$$$$$$$$$$....",
"....$$$$$$$$$$$$$$$$$$$$$$$$$$$$$$$$$$$$$$$$$$$$$$$$$$$$$$$$$$$$$$$$$$$$$$$$$$$$$$$$$$$$$$$$$$$$$$$$$$$$$$$$$$$$$$$$$....",
"....$$$$$$$$$$$$$$$$$$$$$$$$$$$$$$$$$$$$$$$$$$$$$$$$$$$$$$$$$$$$$$$$$$$$$$$$$$$$$$$$$$$$$$$$$$$$$$$$$$$$$$$$$$$$$$$$$....",
"....$$$$$$$$$$$$$$$$$$$$$$$$$$$$$$$$$$$$$$$$$$$$$$$$$$$$$$$$$$$$$$$$$$$$$$$$$$$$$$$$$$$$$$$$$$$$$$$$$$$$$$$$$$$$$$$$$....",
"....$$$$$$$$$$$$$$$$$$$$$$$$$$$$$$$$$$$$$$$$$$$$$$$$$$$$$$$$$$$$$$$$$$$$$$$$$$$$$$$$$$$$$$$$$$$$$$$$$$$$$$$$$$$$$$$$$....",
"......$$$$$$$$$$$$$$$$$$$$$$$$$$$$$$$$$$$$$$$$$$$$$$$$$$$$$$$$$$$$$$$$$$$$$$$$$$$$$$$$$$$$$$$$$$$$$$$$$$$$$$$$$$$$$$$....",
"   ....$$$$$$$$$$$$$$$$$$$$$$$$$$$$$$$$$$$$$$$$$$$$$$$$$$$$$$$$$$$$$$$$$$$$$$$$$$$$$$$$$$$$$$$$$$$$$$$$$$$$$$$$$$$....   ",
"   ....$$$$$$$$$$$$$$$$$$$$$$$$$$$$$$$$$$$$$$$$$$$$$$$$$$$$$$$$$$$$$$$$$$$$$$$$$$$$$$$$$$$$$$$$$$$$$$$$$$$$$$$$$$$....   ",
"   ...................................................................................................................   ",
"       ............................................................................................................      ",
"       ............................................................................................................      ",
"       ............................................................................................................      "};
