/* XPM */
static char * new_game_selected_xpm[] = {
"116 51 6 1",
" 	c None",
".	c #FFFFFF",
"+	c #000000",
"@	c #41C4EB",
"#	c #C4EDF9",
"$	c #095CC7",
"      ........................................................................................................      ",
"      ........................................................................................................      ",
"      ..++++++++++++++++++++++++++++++++++++++++++++++++++++++++++++++++++++++++++++++++++++++++++++++++++++..      ",
"      ..++++++++++++++++++++++++++++++++++++++++++++++++++++++++++++++++++++++++++++++++++++++++++++++++++++..      ",
"   .....++++++++++++++++++++++++++++++++++++++++++++++++++++++++++++++++++++++++++++++++++++++++++++++++++++.....   ",
"   .....++@@@@@@@@@@@@@@@@@@@@@@@@@@@@@@@@@@@@@@@@@@@@@@@@@@@@@@@@@@@@@@@@@@@@@@@@@@@@@@@@@@@@@@@@@@@@@+++++.....   ",
".....+++@@@@@@@@@@@@@@@@@@@@@@@@@@@@@@@@@@@@@@@@@@@@@@@@@@@@@@@@@@@@@@@@@@@@@@@@@@@@@@@@@@@@@@@@@@@@@@@@@@@@+++.....",
".....+++@@@@@@@@@@@@@@@@@@@@@@@@@@@@@@@@@@@@@@@@@@@@@@@@@@@@@@@@@@@@@@@@@@@@@@@@@@@@@@@@@@@@@@@@@@@@@@@@@@@@+++.....",
"..++++@@@@@@@@@@@@@@@@@@@@@@@@@@@@@@@@@@@@@@@@@@@@@@@@@@@@@@@@@@@@@@@@@@@@@@@@@@@@@@@@@@@@@@@@@@@@@@@@@@@@@@++++++..",
"..++++@@@@@@@@@@@@@@@@@@@@@@@@@@@@@@@@@@@@@@@@@@@@@@@@@@@@@@@@@@@@@@@@@@@@@@@@@@@@@@@@@@@@@@@@@@@@@@@@@@@@@@##++++..",
"..++++@@@@@@@@@@@@@@@@@@@@@@@@@@@@@@@@@@@@@@@@@@@@@@@@@@@@@@@@@@@@@@@@@@@@@@@@@@@@@@@@@@@@@@@@@@@@@@@@@@@@@@##++++..",
"..++++@@@@........@@@.........@..@@@@@@@@@@@@..@@@@@@@.........@@@@......@@@.......@@@......@@@.........@@@@##++++..",
"..++++@@@@........@@@.........@..@@@@@@@@@@@@..@@@@@@...........@@@......@@@.......@@@......@@@.........@@@@##++++..",
"..++++@@@@........@@@.........@..@@@@@@@@@@@@..@@@@@@...........@@........@@.......@@@......@@@.........@@@@##++++..",
"..++++@@@@...@@@@@......@@@@@@@..@@@@@@@@@@@@..@@@@@@...@@@@@...@@...@@...@@...@@@@...@@@@@@......@@@@@@@@@@##++++..",
"..++++@@@@...@@@@@......@@@@@@@..@@@@@@@@@@@@..@@@@@@...@@@@@@@@@....@@....@...@@@@...@@@@@@......@@@@@@@@@@##++++..",
"..++++@@@@...@@@@@......@@@@@@@..@@@@@@@@@@@@..@@@@@@...@@@@@@@@@...@@@@...@...@@@@...@@@@@@......@@@@@@@@@@##++++..",
"..++++@@@@...@@@@@......@@@@@@@..@@@@@@@@@@@@..@@@@@@...@@@@@@@@@...@@@@...@...@@@@...@@@@@@......@@@@@@@@@@##++++..",
"..++++@@@@...@@@@@......@@@@@@@..@@@@@@@@@@@@..@@@@@@...@@@@@@@@@...@@@@...@...@@@@...@@@@@@......@@@@@@@@@@##++++..",
"..++++@@@@...@@@@@........@@@@@..@@@@@@@@@@@@..@@@@@@...@@@@@@@@@...@@@@...@...@@@@...@@@@@@........@@@@@@@@##++++..",
"..++++@@@@...@@@@@........@@@@@..@@@@@@@@@@@@..@@@@@@...@@......@..........@...@@@@...@@@@@@........@@@@@@@@##++++..",
"..++++@@@@...@@@@@......@@@@@@@..@@@@@..@@@@@..@@@@@@...@@......@..........@...@@@@...@@@@@@......@@@@@@@@@@##++++..",
"..++++@@@@...@@@@@......@@@@@@@..@@@@@..@@@@@..@@@@@@...@@......@..........@...@@@@...@@@@@@......@@@@@@@@@@##++++..",
"..++++@@@@...@@@@@......@@@@@@@..@@@@@..@@@@@..@@@@@@...@@@@@...@...@@@@...@...@@@@...@@@@@@......@@@@@@@@@@##++++..",
"..++++@@@@...@@@@@......@@@@@@@..@@@......@@@..@@@@@@...@@@@@...@...@@@@...@...@@@@...@@@@@@......@@@@@@@@@@##++++..",
"..++++@@@@...@@@@@......@@@@@@@..@@@......@@@..@@@@@@...@@@@@...@...@@@@...@...@@@@...@@@@@@......@@@@@@@@@@##++++..",
"..++++@@@@...@@@@@......@@@@@@@..@@@......@@@..@@@@@@...@@@@@...@...@@@@...@...@@@@...@@@@@@......@@@@@@@@@@##++++..",
"..++++@@@@...@@@@@............@.......@@.......@@@@@@...........@...@@@@...@...@@@@...@@@@@@............@@@@##++++..",
"..++++@@@@...@@@@@............@@......@@......@@@@@@@...........@...@@@@...@...@@@@...@@@@@@............@@@@##++++..",
"..++++@@@@...@@@@@............@@......@@......@@@@@@@@.........@@...@@@@...@...@@@@...@@@@@@............@@@@##++++..",
"..++++@@@@@@@@@@@@@@@@@@@@@@@@@@@@@@@@@@@@@@@@@@@@@@@@@@@@@@@@@@@@@@@@@@@@@@@@@@@@@@@@@@@@@@@@@@@@@@@@@@@@@@##++++..",
"..++++##@@@@@@@@@@@@@@@@@@@@@@@@@@@@@@@@@@@@@@@@@@@@@@@@@@@@@@@@@@@@@@@@@@@@@@@@@@@@@@@@@@@@@@@@@@@@@@@@@@@@##++++..",
"..++++##@@@@@@@@@@@@@@@@@@@@@@@@@@@@@@@@@@@@@@@@@@@@@@@@@@@@@@@@@@@@@@@@@@@@@@@@@@@@@@@@@@@@@@@@@@@@@@@@@@@@##++++..",
"..++++########################################################################################################++++..",
"..++++$$####################################################################################################$$++++..",
"..++++$$####################################################################################################$$++++..",
"..++++$$####################################################################################################$$++++..",
"..++++$$$$$$$$$$$$$$$$$$$$$$$$$$$$$$$$$$$$$$$$$$$$$$$$$$$$$$$$$$$$$$$$$$$$$$$$$$$$$$$$$$$$$$$$$$$$$$$$$$$$$$$$++++..",
"..++++$$$$$$$$$$$$$$$$$$$$$$$$$$$$$$$$$$$$$$$$$$$$$$$$$$$$$$$$$$$$$$$$$$$$$$$$$$$$$$$$$$$$$$$$$$$$$$$$$$$$$$$$++++..",
"..++++$$$$$$$$$$$$$$$$$$$$$$$$$$$$$$$$$$$$$$$$$$$$$$$$$$$$$$$$$$$$$$$$$$$$$$$$$$$$$$$$$$$$$$$$$$$$$$$$$$$$$$$$++++..",
"..++++$$$$$$$$$$$$$$$$$$$$$$$$$$$$$$$$$$$$$$$$$$$$$$$$$$$$$$$$$$$$$$$$$$$$$$$$$$$$$$$$$$$$$$$$$$$$$$$$$$$$$$$$++++..",
"..++++$$$$$$$$$$$$$$$$$$$$$$$$$$$$$$$$$$$$$$$$$$$$$$$$$$$$$$$$$$$$$$$$$$$$$$$$$$$$$$$$$$$$$$$$$$$$$$$$$$$$$$$$++++..",
"..++++$$$$$$$$$$$$$$$$$$$$$$$$$$$$$$$$$$$$$$$$$$$$$$$$$$$$$$$$$$$$$$$$$$$$$$$$$$$$$$$$$$$$$$$$$$$$$$$$$$$$$$$$++++..",
".....+++$$$$$$$$$$$$$$$$$$$$$$$$$$$$$$$$$$$$$$$$$$$$$$$$$$$$$$$$$$$$$$$$$$$$$$$$$$$$$$$$$$$$$$$$$$$$$$$$$$$$+++.....",
".....+++$$$$$$$$$$$$$$$$$$$$$$$$$$$$$$$$$$$$$$$$$$$$$$$$$$$$$$$$$$$$$$$$$$$$$$$$$$$$$$$$$$$$$$$$$$$$$$$$$$$$+++.....",
"   ..++++++++++++++++++++++++++++++++++++++++++++++++++++++++++++++++++++++++++++++++++++++++++++++++++++++++++..   ",
"   .....++++++++++++++++++++++++++++++++++++++++++++++++++++++++++++++++++++++++++++++++++++++++++++++++++++.....   ",
"   .....++++++++++++++++++++++++++++++++++++++++++++++++++++++++++++++++++++++++++++++++++++++++++++++++++++.....   ",
"      ..++++++++++++++++++++++++++++++++++++++++++++++++++++++++++++++++++++++++++++++++++++++++++++++++++++..      ",
"      ........................................................................................................      ",
"      ........................................................................................................      "};
