/* XPM */
static char * pause_button_xpm[] = {
"40 40 6 1",
" 	c None",
".	c #000000",
"+	c #1F1C1C",
"@	c #473C3C",
"#	c #6D6060",
"$	c #FFFFFF",
"      ............................      ",
"      ............................      ",
"    ..@@@@@@@@@@@@@@@@@@@@@@@@@@@@..    ",
"    ..@@@@@@@@@@@@@@@@@@@@@@@@@@@@..    ",
"  ..@@@@@@@@@@@@@@@@@@@@@@@@@@@@@@@@..  ",
"  ..@@@@@@@@@@@@@@@@@@@@@@@@@@@@@@@@..  ",
"..@@@@@@@@@@$$$$$$$@@$$$$$$@@@@@@@@@@@..",
"..@@@@@@@@@@$$$$$$$@@$$$$$$@@@@@@@@@@@..",
"..@@@@@@@@@@$$$$$$$@@$$$$$$@@@@@@@@@@@..",
"..@@@@@@@@@@$$$$$$$@@$$$$$$@@@@@@@@@@@..",
"..@@@@@@@@@@$$$$$$$@@$$$$$$@@@@@@@@@@@..",
"..@@@@@@@@@@$$$$$$$@@$$$$$$@@@@@@@@@@@..",
"..@@@@@@@@@@$$$$$$$@@$$$$$$@@@@@@@@@@@..",
"..@@@@@@@@@@$$$$$$$@@$$$$$$@@@@@@@@@@@..",
"..@@@@@@@@@@$$$$$$$@@$$$$$$@@@@@@@@@@@..",
"..@@@@@@@@@@$$$$$$$@@$$$$$$@@@@@@@@@@@..",
"..@@@@@@@@@@$$$$$$$@@$$$$$$@@@@@@@@@@@..",
"..@@@@@@@@@@$$$$$$$@@$$$$$$@@@@@@@@@@@..",
"..@@@@@@@@@@$$$$$$$@@$$$$$$@@@@@@@@@@@..",
"..@@@@@@@@@@$$$$$$$@@$$$$$$@@@@@@@@@@@..",
"..@@@@@@@@@@$$$$$$$@@$$$$$$@@@@@@@@@@@..",
"..@@@@@@@@@@$$$$$$$@@$$$$$$@@@@@@@@@@@..",
"..@@@@@@@@@@$$$$$$$@@$$$$$$@@@@@@@@@@@..",
"..@@@@@@@@@@$$$$$$$@@$$$$$$@@@@@@@@@@@..",
"..@@@@@@@@@@$$$$$$$@@$$$$$$@@@@@@@@@@@..",
"..###@@@@@@@@@@@@@@@@@@@@@@@@@@@@@@@##..",
"..###@@@@@@@@@@@@@@@@@@@@@@@@@@@@@@@##..",
"..++##@@@@@@@@@@@@@@@@@@@@@@@@@@@@##++..",
"..++##@@@@@@@@@@@@@@@@@@@@@@@@@@@@##++..",
"..++################################++..",
"..++++############################++++..",
"..++++############################++++..",
"..++++++++++++++++++++++++++++++++++++..",
"....++++++++++++++++++++++++++++++++++..",
"  ..++++++++++++++++++++++++++++++++..  ",
"  ..++++++++++++++++++++++++++++++++..  ",
"    ..++++++++++++++++++++++++++++..    ",
"    ..++++++++++++++++++++++++++++..    ",
"      ............................      ",
"      ............................      "};
