/* XPM */
static char * resume_selected_xpm[] = {
"107 51 6 1",
" 	c None",
".	c #000000",
"+	c #1D2E1F",
"@	c #43944C",
"#	c #81AE86",
"$	c #FFFFFF",
"      $$$$$$$$$$$$$$$$$$$$$$$$$$$$$$$$$$$$$$$$$$$$$$$$$$$$$$$$$$$$$$$$$$$$$$$$$$$$$$$$$$$$$$$$$$$$$$$      ",
"      $$$$$$$$$$$$$$$$$$$$$$$$$$$$$$$$$$$$$$$$$$$$$$$$$$$$$$$$$$$$$$$$$$$$$$$$$$$$$$$$$$$$$$$$$$$$$$$      ",
"      $$...........................................................................................$$      ",
"      $$...........................................................................................$$      ",
"   $$$$$...........................................................................................$$$$$   ",
"   $$$$$..@@@@@@@@@@@@@@@@@@@@@@@@@@@@@@@@@@@@@@@@@@@@@@@@@@@@@@@@@@@@@@@@@@@@@@@@@@@@@@@@@@@@.....$$$$$   ",
"$$$$$...@@@@@@@@@@@@@@@@@@@@@@@@@@@@@@@@@@@@@@@@@@@@@@@@@@@@@@@@@@@@@@@@@@@@@@@@@@@@@@@@@@@@@@@@@@@...$$$$$",
"$$$$$...@@@@@@@@@@@@@@@@@@@@@@@@@@@@@@@@@@@@@@@@@@@@@@@@@@@@@@@@@@@@@@@@@@@@@@@@@@@@@@@@@@@@@@@@@@@...$$$$$",
"$$....@@@@@@@@@@@@@@@@@@@@@@@@@@@@@@@@@@@@@@@@@@@@@@@@@@@@@@@@@@@@@@@@@@@@@@@@@@@@@@@@@@@@@@@@@@@@@......$$",
"$$....@@@@@@@@@@@@@@@@@@@@@@@@@@@@@@@@@@@@@@@@@@@@@@@@@@@@@@@@@@@@@@@@@@@@@@@@@@@@@@@@@@@@@@@@@@@@@##....$$",
"$$....@@@@@@@@@@@@@@@@@@@@@@@@@@@@@@@@@@@@@@@@@@@@@@@@@@@@@@@@@@@@@@@@@@@@@@@@@@@@@@@@@@@@@@@@@@@@@##....$$",
"$$....@@@@@@@@@@@$$$$$$$$$$$@@@$$$$$$$$$@$$$$$$$$$$$@$$@@@@@$$$@$$$$$$$@@@$$$$$@@@@$$$$$$$$@@@@@@@@##....$$",
"$$....@@@@@@@@@@@$$$$$$$$$$$@@@$$$$$$$$$@$$$$$$$$$$$@$$@@@@@$$$@$$$$$$$@@@$$$$$@@@@$$$$$$$$@@@@@@@@##....$$",
"$$....@@@@@@@@@@@$$$$$$$$$$$@@@$$$$$$$$$@$$$$$$$$$$$@$$@@@@@$$$@$$$$$$$@@@$$$$$@@@@$$$$$$$$@@@@@@@@##....$$",
"$$....@@@@@@@@@@@$$@@@@@@@@@$$$$$$@@@@@@@$$@@@@@@@@@@$$@@@@@$$$@$$@@@@@$$$@@@@@$$$@$$$@@@@@@@@@@@@@##....$$",
"$$....@@@@@@@@@@@$$@@@@@@@@@$$$$$$@@@@@@@$$@@@@@@@@@@$$@@@@@$$$@$$@@@@@$$$@@@@@$$$@$$$@@@@@@@@@@@@@##....$$",
"$$....@@@@@@@@@@@$$@@@@@@@@@$$$$$$@@@@@@@$$@@@@@@@@@@$$@@@@@$$$@$$@@@@@$$$@@@@@$$$@$$$@@@@@@@@@@@@@##....$$",
"$$....@@@@@@@@@@@$$@@@@@@@@@$$$$$$@@@@@@@$$@@@@@@@@@@$$@@@@@$$$@$$@@@@@$$$@@@@@$$$@$$$@@@@@@@@@@@@@##....$$",
"$$....@@@@@@@@@@@$$@@@@@@@@@$$$$$$@@@@@@@$$@@@@@@@@@@$$@@@@@$$$@$$@@@@@$$$@@@@@$$$@$$$@@@@@@@@@@@@@##....$$",
"$$....@@@@@@@@@@@$$@@@@@@@@@$$$$$$@@@@@@@$$@@@@@@@@@@$$@@@@@$$$@$$@@@@@$$$@@@@@$$$@$$$@@@@@@@@@@@@@##....$$",
"$$....@@@@@@@@@@@$$$$$$$$$$$@@@$$$$$$@@@@$$$$$$$$$$$@$$@@@@@$$$@$$@@@@@$$$@@@@@$$$@$$$$$@@@@@@@@@@@##....$$",
"$$....@@@@@@@@@@@$$$$$$$$$$$@@@$$$$$$@@@@$$$$$$$$$$$@$$@@@@@$$$@$$@@@@@$$$@@@@@$$$@$$$$$@@@@@@@@@@@##....$$",
"$$....@@@@@@@@@@@$$$$$@@@@@@@@@$$$@@@@@@@@@@@@@@@$$$@$$@@@@@$$$@$$@@@@@$$$@@@@@$$$@$$$@@@@@@@@@@@@@##....$$",
"$$....@@@@@@@@@@@$$$$$@@@@@@@@@$$$@@@@@@@@@@@@@@@$$$@$$@@@@@$$$@$$@@@@@$$$@@@@@$$$@$$$@@@@@@@@@@@@@##....$$",
"$$....@@@@@@@@@@@$$@@@$$$@@@@@@$$$@@@@@@@@@@@@@@@$$$@$$@@@@@$$$@$$@@@@@$$$@@@@@$$$@$$$@@@@@@@@@@@@@##....$$",
"$$....@@@@@@@@@@@$$@@@$$$@@@@@@$$$@@@@@@@@@@@@@@@$$$@$$@@@@@$$$@$$@@@@@$$$@@@@@$$$@$$$@@@@@@@@@@@@@##....$$",
"$$....@@@@@@@@@@@$$@@@$$$@@@@@@$$$@@@@@@@@@@@@@@@$$$@$$@@@@@$$$@$$@@@@@$$$@@@@@$$$@$$$@@@@@@@@@@@@@##....$$",
"$$....@@@@@@@@@@@$$@@@@@@$$$@@@$$$$$$$$$@$$$$$$$$$$$@$$$$$$$$$$@$$@@@@@$$$@@@@@$$$@$$$$$$$$@@@@@@@@##....$$",
"$$....@@@@@@@@@@@$$@@@@@@$$$@@@$$$$$$$$$@$$$$$$$$$$$@$$$$$$$$$$@$$@@@@@$$$@@@@@$$$@$$$$$$$$@@@@@@@@##....$$",
"$$....@@@@@@@@@@@$$@@@@@@$$$@@@$$$$$$$$$@$$$$$$$$$$$@$$$$$$$$$$@$$@@@@@$$$@@@@@$$$@$$$$$$$$@@@@@@@@##....$$",
"$$....@@@@@@@@@@@@@@@@@@@@@@@@@@@@@@@@@@@@@@@@@@@@@@@@@@@@@@@@@@@@@@@@@@@@@@@@@@@@@@@@@@@@@@@@@@@@@##....$$",
"$$....##@@@@@@@@@@@@@@@@@@@@@@@@@@@@@@@@@@@@@@@@@@@@@@@@@@@@@@@@@@@@@@@@@@@@@@@@@@@@@@@@@@@@@@@@@@@##....$$",
"$$....##@@@@@@@@@@@@@@@@@@@@@@@@@@@@@@@@@@@@@@@@@@@@@@@@@@@@@@@@@@@@@@@@@@@@@@@@@@@@@@@@@@@@@@@@@@@##....$$",
"$$....###############################################################################################....$$",
"$$....++###########################################################################################++....$$",
"$$....++###########################################################################################++....$$",
"$$....++###########################################################################################++....$$",
"$$....+++++++++++++++++++++++++++++++++++++++++++++++++++++++++++++++++++++++++++++++++++++++++++++++....$$",
"$$....+++++++++++++++++++++++++++++++++++++++++++++++++++++++++++++++++++++++++++++++++++++++++++++++....$$",
"$$....+++++++++++++++++++++++++++++++++++++++++++++++++++++++++++++++++++++++++++++++++++++++++++++++....$$",
"$$....+++++++++++++++++++++++++++++++++++++++++++++++++++++++++++++++++++++++++++++++++++++++++++++++....$$",
"$$....+++++++++++++++++++++++++++++++++++++++++++++++++++++++++++++++++++++++++++++++++++++++++++++++....$$",
"$$....+++++++++++++++++++++++++++++++++++++++++++++++++++++++++++++++++++++++++++++++++++++++++++++++....$$",
"$$$$$...+++++++++++++++++++++++++++++++++++++++++++++++++++++++++++++++++++++++++++++++++++++++++++...$$$$$",
"$$$$$...+++++++++++++++++++++++++++++++++++++++++++++++++++++++++++++++++++++++++++++++++++++++++++...$$$$$",
"   $$.................................................................................................$$   ",
"   $$$$$..............................................................................................$$   ",
"   $$$$$..............................................................................................$$   ",
"      $$..............................................................................................$$   ",
"      $$$$$$$$$$$$$$$$$$$$$$$$$$$$$$$$$$$$$$$$$$$$$$$$$$$$$$$$$$$$$$$$$$$$$$$$$$$$$$$$$$$$$$$$$$$$$$$$$$   ",
"      $$$$$$$$$$$$$$$$$$$$$$$$$$$$$$$$$$$$$$$$$$$$$$$$$$$$$$$$$$$$$$$$$$$$$$$$$$$$$$$$$$$$$$$$$$$$$$$$$$   "};
