/* XPM */
static char * door_xpm[] = {
"56 73 256 2",
"  	c None",
". 	c #18212E",
"+ 	c #1A222E",
"@ 	c #1C222E",
"# 	c #1E232D",
"$ 	c #21232D",
"% 	c #2A212B",
"& 	c #22242D",
"* 	c #302128",
"= 	c #25242D",
"- 	c #2B2328",
"; 	c #27242C",
"> 	c #24252C",
", 	c #24252D",
"' 	c #392025",
") 	c #342224",
"! 	c #26262C",
"~ 	c #27262C",
"{ 	c #3D2023",
"] 	c #30242A",
"^ 	c #2A262C",
"/ 	c #2C262B",
"( 	c #2E2629",
"_ 	c #402223",
": 	c #322629",
"< 	c #2C282C",
"[ 	c #342628",
"} 	c #262A31",
"| 	c #372625",
"1 	c #422321",
"2 	c #3C2524",
"3 	c #412422",
"4 	c #432420",
"5 	c #3A2723",
"6 	c #32292B",
"7 	c #422522",
"8 	c #432521",
"9 	c #302A2C",
"0 	c #44251F",
"a 	c #322A2A",
"b 	c #442621",
"c 	c #45261F",
"d 	c #3F2821",
"e 	c #2E2C31",
"f 	c #432722",
"g 	c #372A2B",
"h 	c #45271F",
"i 	c #42281F",
"j 	c #452721",
"k 	c #46271F",
"l 	c #452723",
"m 	c #47271E",
"n 	c #3E2A23",
"o 	c #462820",
"p 	c #3B2B28",
"q 	c #2B2F37",
"r 	c #372D2A",
"s 	c #462923",
"t 	c #48291E",
"u 	c #482921",
"v 	c #482922",
"w 	c #3D2C27",
"x 	c #3A2D2A",
"y 	c #432B25",
"z 	c #482A20",
"A 	c #492A1D",
"B 	c #492A1E",
"C 	c #482B22",
"D 	c #482B23",
"E 	c #4A2B1C",
"F 	c #3D2E29",
"G 	c #422D23",
"H 	c #4A2B20",
"I 	c #462C23",
"J 	c #4A2B21",
"K 	c #3F2E26",
"L 	c #4C2B1D",
"M 	c #4B2B21",
"N 	c #4C2B1F",
"O 	c #492C21",
"P 	c #4B2C1B",
"Q 	c #4B2C1D",
"R 	c #4B2C1F",
"S 	c #462E21",
"T 	c #4B2D1F",
"U 	c #3F3028",
"V 	c #4B2D20",
"W 	c #482E22",
"X 	c #4C2D20",
"Y 	c #4D2D1E",
"Z 	c #4C2E1D",
"` 	c #4D2E1B",
" .	c #4D2E1C",
"..	c #4D2E1D",
"+.	c #4C2E23",
"@.	c #423127",
"#.	c #483026",
"$.	c #4E2F21",
"%.	c #502F1B",
"&.	c #403327",
"*.	c #4B3025",
"=.	c #4C3024",
"-.	c #4F301C",
";.	c #4E3020",
">.	c #4F301D",
",.	c #4F301E",
"'.	c #4F301F",
").	c #4F3022",
"!.	c #4D3123",
"~.	c #463326",
"{.	c #50311B",
"].	c #483324",
"^.	c #4D321F",
"/.	c #4C3223",
"(.	c #4F3222",
"_.	c #51321B",
":.	c #503220",
"<.	c #52321A",
"[.	c #53321A",
"}.	c #52321E",
"|.	c #4F3324",
"1.	c #52331B",
"2.	c #533319",
"3.	c #52331D",
"4.	c #52331D",
"5.	c #4F341D",
"6.	c #4B3524",
"7.	c #523421",
"8.	c #53351A",
"9.	c #543423",
"0.	c #543519",
"a.	c #553518",
"b.	c #503622",
"c.	c #483829",
"d.	c #54361A",
"e.	c #503629",
"f.	c #563616",
"g.	c #563618",
"h.	c #56361B",
"i.	c #553623",
"j.	c #55371E",
"k.	c #523820",
"l.	c #553721",
"m.	c #57371D",
"n.	c #57371F",
"o.	c #523828",
"p.	c #583818",
"q.	c #58381A",
"r.	c #593818",
"s.	c #533924",
"t.	c #59381B",
"u.	c #523A1E",
"v.	c #57391A",
"w.	c #583919",
"x.	c #593917",
"y.	c #503C29",
"z.	c #583B21",
"A.	c #5B3B18",
"B.	c #5B3B19",
"C.	c #5B3B1D",
"D.	c #5B3B22",
"E.	c #5C3C16",
"F.	c #593C22",
"G.	c #533D2F",
"H.	c #5C3C1C",
"I.	c #5F3C17",
"J.	c #5C3D17",
"K.	c #583D29",
"L.	c #5D3D1A",
"M.	c #5A3E1D",
"N.	c #5B3E1A",
"O.	c #5B3E1B",
"P.	c #593F1E",
"Q.	c #5F3E17",
"R.	c #5E3E1B",
"S.	c #5F3E19",
"T.	c #5E3F19",
"U.	c #5F3F19",
"V.	c #603F16",
"W.	c #603F18",
"X.	c #554129",
"Y.	c #614015",
"Z.	c #614117",
"`.	c #62411C",
" +	c #5D4223",
".+	c #5F421E",
"++	c #634216",
"@+	c #62421A",
"#+	c #634218",
"$+	c #644216",
"%+	c #644217",
"&+	c #61431B",
"*+	c #624319",
"=+	c #634317",
"-+	c #5C4427",
";+	c #664317",
">+	c #654416",
",+	c #654417",
"'+	c #65441A",
")+	c #624427",
"!+	c #63451A",
"~+	c #644519",
"{+	c #664515",
"]+	c #674517",
"^+	c #654618",
"/+	c #644621",
"(+	c #684616",
"_+	c #684618",
":+	c #684715",
"<+	c #664720",
"[+	c #694715",
"}+	c #694717",
"|+	c #68471D",
"1+	c #69471B",
"2+	c #684818",
"3+	c #6A4815",
"4+	c #694819",
"5+	c #66491C",
"6+	c #634931",
"7+	c #69491C",
"8+	c #6D491A",
"9+	c #6B4A1A",
"0+	c #6C4A17",
"a+	c #6C4A18",
"b+	c #6C4A1C",
"c+	c #634D2B",
"d+	c #6C4C24",
"e+	c #6D4D1E",
"f+	c #6F4D19",
"g+	c #6F4D1B",
"h+	c #6F4E1D",
"i+	c #704F22",
"j+	c #6E5024",
"k+	c #72501B",
"l+	c #72511F",
"m+	c #725122",
"n+	c #75531C",
"o+	c #75531F",
"p+	c #76531E",
"q+	c #745424",
"r+	c #755421",
"s+	c #78561D",
"t+	c #78561F",
"u+	c #785620",
"v+	c #7A5821",
"w+	c #7A5823",
"x+	c #7C5920",
"y+	c #7F5C22",
"z+	c #7F5D20",
"A+	c #7E5D25",
"B+	c #815F25",
"C+	c #836024",
"D+	c #826126",
"E+	c #846222",
"F+	c #8A6728",
"G+	c #916E2B",
"                        3.3.3.3.3.3.3.3.3.3.<.<.1.{.5.^.5.<.<.<.3.3.3.3.3.3.3.3.3.                              ",
"                  3.3.3.3.3.3.3.3.3.3.3.3.<.<.{.(./.S | S <.2.2.<.3.3.3.3.3.3.3.3.3.3.3.                        ",
"                3.3.3.3.3.3.3.3.3.3.3.3.3.2.}.B V W d [ d ` ` -.{.3.3.3.3.3.3.3.3.3.3.3.3.3.                    ",
"                3.3.3.3.3.3.3.3.3.-.A A ` Z z 4 z t i | d Z T Q P P A B ` _.3.3.3.3.3.3.3.3.3.                  ",
"            3.3.3.3.3.3.3.3.<.5.^. .m c t c 1 1 0 h i 2 i Z t t E A c 1 B :.3.3.3.3.3.3.3.3.3.3.                ",
"            3.3.3.3.3.3.3.<.{. .` Q m 0 c 4 1 1 0 h f 2 i E h 0 B A k 1 c T 3.3.3.3._.b.3.3.3.3.                ",
"        3.3.3.3.3.3.3.3.^.{.P t Q A c 4 0 4 1 1 0 h i 2 i P A c m A t 0 0 t +.*.e.:._.{.3.3.3.3.3.              ",
"        3.3.3.3.3.3.2._.`  .t m L N c 4 0 0 1 4 m B f | S -.%.t z A A c 0 t B o H P P ` t  .3.3.3.3.            ",
"      3.3.3.3.3.3.3.{.P B A k k Q L c 0 c c 1 m ` -.d ( S 8.0.Z A  . .m 1 A A c m A E E k A 3.3.3.3.3.3.        ",
"      3.3.3.3.{.2.{.P m 0 m h k A B k m E Z 1 1 g.d.G ( ].0.2.Y -.h.m.Y 1 Q A c m A A A k B P 3.3.3.3.3.        ",
"  3.3.3.3.3.3. .%. .A c 0 m m k L Q 1 ,.q.r.<.1 Q.O.G ^ ].v.%.H h.@+S.1 1 1. .1 R '.Y Q k B E P ` 3.3.3.3.3.    ",
"  3.3.3.%+{. .t E A t 0 0 B t 1  .2.1 C.,+Z.q.1 V.A.G ^ 6.w. .u C.Z.W.1 3.H.m.1 Q %. .%+k %+Z E A Z ` 3.3.3.    ",
"  3.3.3.%+-.Q k %+A m 0 0 A %+1 0.E.v.1 _+%+q.1 Y.L.G ^ 6.L.{.z H.++Z.1 t.'+H.1 >.<.%+Z %+%+}.'.h k P 3.3.3.d.  ",
"6+1.^.W %+` A 0 h %+B c m %+%+1 E.Y.p.1 ]+Y.a.1 Y.L.G ^ 6.T.h.1 U.>+Y.1 H.9+*+>.1 H.%+{.m %+%+}.o 4 E ` A m d.  ",
"o.5.:.z Q  .A b y+y+A m Q _.Z 1 Y.,+B.1 ++L.>.1 V.w.G ^ 6.Z.A.1 U.>+Y.1 1 g+4+3.1 '+S.t.1 {.t.m.H 4 Z ` m P g.z.",
"s.{._.1 m.h.k b 9+y+++m.a.%+V.z l+S.%+o q.f+y+;.a+'+d.= = 8.g.1 ,+[+]+j 1 o+E.a.s r+y+U.0.t ++U.y+O 1 r.R H.T. +",
"s.` <.1 h.R.H j b+n+9+C.%.++0.z i+A.++o B.E+a+O '+x.8.= ; 8.a.'.{+3+}+)+D o+>+a.s l+k+x+'.z >+2+B+D _ A.Y |+&+ +",
"s.<.[.1 h.@+N z g+_+9+n.-.%+C C m+=+=+o '+E+2+X A.p.2.^ ^.g.a.'.++[+[+d+C o+4+z.s w+0+C+;.j ]+[+g+8 _ @+T R.!+F.",
"F 5 5 3 B.%+V : @.F U g : U % - c.U K D B+e+;+;.U.a.p ! d.V.g.Y $+[+[+1+D c.U g - c.@.y.: - U U K { _ U.[ x U x ",
"6 - - ) K @.: @ . . . + + . + + . . + : -+p.8+Y E.0.& = 0.;+f.$.g+[+E.~.: . . . + . . . + + . . + % % K # . . q ",
"6 - - - ].y.c., @ . . + . . . + . . # p ~.w.k+Y x.8.= = d.{+U.B <+(+L.G ] + . . + + . . . . . . + [ c+6.# + . q ",
"F n - | Z.f+5+w K y.w | p y.~.: @.p ] ).`.V.l+V f.8.= ; L.[+{+<.$.>+{+E.j ~.~.p ] p w @.~.p ~.~.w D F+2+].| @.U ",
"|.2.n 1 %+f+h+:.@+g+A. .m.o+_+t Y.g.3 v `.[+k+H f.8.& ^ ,+[+++Y.'.9+;+>+R >+{+g.1 a.p.$+(+i.2+[+x.D B+s+%+ .J.z.",
"|.2.%.b ++f+l+7.h+g+W.Y t.g+a+H Y.S.V v `.a+g+V a.0.r / =+[+x.V.7.A+@+>+X _+{+g.3 a.A.[+%+i.(+[+p.8 _+G+L. .J.z.",
"|.2.%.4 ++k+r+7.h+Z.%+{.;+e+9+z %+k+%+J `.n+;+Y q.x.J.( g.:+A.Z.i.D+=+%+X a+{+q.3 q.++[+x.9.(+]+8 8 _+G+U. .L.z.",
"|.2.P 4 ++g+(.).Z.>+%+ .]+k+;+u ++k+;+z `.n+]+'.$+{+U.( 0.[+$+%+;.h+(+x.H 9+#+E.8 U.[+[+Z.9.(+;+7 A 9+G+4+A L.z.",
"!.<.E 4 #+y+R.v A.$+%+Z ]+p+++z 9+[+$+z #+n+(+'.>+{+v./ 0.[+:+,+).h+[+%+z ]+@+I.8 W.[+E.%+9.]+x._ b 9+G+}+Q L.z.",
"!._.Q 4 #+C+*+j x.++;+Y ]+p+]+H f+3+$+z b+n+(+Y ]+{+0./ 0.[+{+t.=.h+[+>+J ,+@+V.8 ;+:+x.;+i._+U.1 3 9+G+a+Z L.z.",
"!._.%.b =+C+l+o v.$+++Y ]+p+:.u f+[+$+u a+1+{+Y A.E.8./ 0.:+>+(.r+4+k+]+V v+'+Z.b ]+3+++]+i.]+++@+8 U.G+~+Q O.6+",
"!.1._.b Z.u+B+O a.++E.A ]+p+8 j f+[+$+u 9+U.m.Y E.r.8./ 0.:+]+=.C+9+k+]+V B+9+,+b ]+V.]+h.9.]+;+k+j @+G+*+Q R.6+",
"!.1.%.0 Q.|+C+=.g.Q.A.A _+p+j o a+[+++u 9+,+z A $+r.8.( U.[+]++.D+0+0+]+V A+k+]+s ]+Y.]+$.).(+{+o++.B+C+%+Z T.F.",
"!.1.{.0 I.L.D+=.g.x.%+Y _+t+m.X ]+[+++u a+}+z H ++x.8./ u.Z.;++.D+0+{+;+V A+k+]+s _+[+(+'.M B.(+l+!.G+0+$+Z &+z.",
"b.8.<.o @+L.A++.a.x.%+Y 2+s+Z.,.{+[+;+z 9+9+z t ++r.0.= = 0.,+C B+n+{+++=.B+k+]+b V.[+(+$.b A ,+h+|.G+f+++-.&+F.",
"l.8.<.k |+S.B++.0.p.%+X a+s+p.'.>+[+_+z 2+a+X 8.>+q.j.= = 0.;+C B+C+:+$+;.D+k+]+8 U.[+(+3.z ` Z.h+|.G+f+>+<.!+F.",
"s.{.[.c |+L.B+=.v.x.Y.R a+s+p.R Y.[+_+u >+2+,.;+]+D.K.= = 0.;+C C+x+0+++:.E+k+;+D t+0+3+>+Y q.++l+|.G+9+>+ .!+F.",
"b.-.1.o @+T.B+!.i+A.%+X f+s+B.H p.{+_+u ]+>+,.{+{+v.j., = 0.;+).A+f+p+p.(.B+k+%+s t+0+[+]+t V.2+g+(.G+9+%+>.!+F.",
"s.{.<.b q.e+D+(.q+A.;+}.p+0+i+'.E.:+_+u >+$+:.{+>+p.8.= = 0.{+#+7.(+}+'.).9+k+,+s }+t+I.>+t ]+n+B.=.G+9+3.@+5+F.",
"s._.0.b a.h+w+).m+A.>+>.e+[+m+'.Q.[+_+z ,+x.'.]+>+x.8.= = d.Y.,+D v+2+B i.]+f+;+8 L.n+E.;+t _+t+q.=.G+b+z ,.'+F.",
"s.{.2.c W.h+r+).r+A.>+Z R.k+r+'.Q.:+4+J ]+<+p 3.;+Y.d.= = 0.Q.@+3 y.*+'.u+:+[+;+b %+0+E.>+R (+t+q.+.G+4+u o @+F.",
"s.%.2.k ~+h+q++.|+e+(+Y p.p+v+}.Q.[+_+J ;+i+9 j >+>+d.= = d.Y.h.{ ; v.;.D+0+{+A.8 _+[+A.>+Z }+s+w.+.G+4+C b `.z.",
"b.` 2.k ^+l+r+z w.r+,+A p.p+x+}.V.:+;+J ++/+/ | ]+{+L.; = d.V. .* ; 1.X D+0+{+a.8 ]+V.x.>+>.2+o+q.+.F+4+c 8 R.z.",
"|.%.<.o @+h+u+z B.r+Z.A p.n+x+}.V.{+%+D k.&.# ; k.>+%+^ = w.V.j $ # S V t+[+{+L.8 ;+r.r.a+}.f+|+a.D D+2+k 8 R.z.",
"!._.{.o w.*+w+V W.o+,+A p.k+x+3.V.{+%+D a U U - < =+=+^ ! L.Q.) [ c.< y >+[+{+]+b V.p.p.|+>.u+x.a.D D+2+t 8 L.z.",
"!._.{.o p.Z.r+O @+u+2+Y x.g+o+>.V.{+%+s r B.S.f a Z.=+^ = d.U./ V l+9 6 9+[+{+]+8 a.A.a.R T o+x.q.D A+2+R b L.z.",
"=.{.` c w.2+u+T Z.w+2+Y W.7+n.z V.{+%+D c.5.C f U x.Z.! = d.T./ y j+9 x B+[+{+]+8 x.[+x.J Z g+A.V.(.q+4+).b v.z.",
"=.{.c k p.}+u+T Z.v+2+A ;+|+9.h V.{+++T A+&.6 g Z.:+g.= = d.W.6 / a ( W v+a+{+]+b ]+x+(+9.Y 9+A.Y.&+O Z.).k z l.",
"!.{.c z x.]+v+;.U.t+2+Y >+Z.D.B x.[+,+(.D+~+T.!.>+:+0.= = a.Y.@+b.U.U.,.^+s+(+]+s 1+z+0+l+,.Z._+W.H _ @+'.A.t l.",
"|._.k t Z.(+y+;.U.u+2+Z ;+%+o+1.Q.[+8+:.D+a+++ .>+:+0.= ! J.E.]+l.{+[+|+3.9+k+2+b ).y+f+x+:.Z.'+p._ _ Z.$.%+w.z.",
"|.8.1.t >+(+A+(.W.|+(+'.++]+v+8.Y.[+a+:.C+}+3.Y ]+[+0.= ! T.x.,+'.>+3+a+Y A.a+f+8 l y+a+x+:.4+'+W._ _ #+X V.E.z.",
"|.h.8.z Z.(+y+;.V.Z.{+'.++++/+_.Y.]+p+3.B+_+B L.:+Q.0.= = w.V.++;.>+3+a+Y g.{+g+3 l D+f+y+}.9+_+]+_ _ Z.H Z.x.z.",
"!.2.-.H _+(+t+;.Q.Y.{+Y ++Z.i.{.E.;+v+n.w+2+R.C.]+v.K # = d.>+$+$.]+[+}+'.Q.[+@+3 C.C+f+y+:.7+f+(+8 j.%+V *+p.z.",
"!.{. .X 4+%+p+;.A.Y.{+A ++%+l.{.f.;+y+l.u+[+a+Y ++0.& @ & d.;+>+$.>+[+;+'.]+:+g.8 a+E+0+x+:.U.k+2+b @+9+;.*+x.z.",
"!.%.E X %+A.n+T f.Y.{+Q ;+W.i.<.r.{+y+7.r+[+a+'.++d.= # p g.;+L.V ++{+W.R ]+[+g.8 2+s+n+r+'.I.n+}+b V.r+S v.L.z.",
"#.T A H Y.E.j+I ^.d.M.I F.^.I ^.^..+y+}.h+f+a+'.++d.= = 8.r.$+v o V.{+g.o M.O.^.2 M.k.j+X.y M.<+M.l 4+j+9 2 b.o.",
"g 2 c f O.v.r # > & & @ $ # # > # 9 q+W z.y+9+;.++d.= = 8.x.;+b 8 q.>+1.2 = & > @ & # > & @ & & = 2 j+9 @ @ # } ",
"g ) ) - ; , # @ > @ @ @ @ @ @ @ @ # < ; x A+|+X ++d.= = 8.x.;+b 8 w.=+6 ; @ @ @ @ @ @ @ @ @ @ @ @ $ r & @ @ @ } ",
"g ) Z - ! , ! & @ @ ! $ , , # = , , < 2 8.x+9+Y =+d.= ! d.r.%+8 7 L.++i 2 ; $ @ @ , , ! , $ & $ & 9 j+9 @ @ $ } ",
"g | -.i j+O.O.^ # ^ /+W M.P.I M.O.&+q+O ;.u+l.t J.d.= ^ d.x.++7 7 N.%+j X O.^.' 2 .+N.q+.+W u.5.6.y w+k.= = /.e ",
"#. .1.B t+>+(+ +M.k.k+'.]+~+Z h.,+2+t+V H o+V z O.d.= ^ d.Y.,+7 7 L.x.b ;.A.a.{ 7 {+]+s+[+Z ++x.w.8 l.a.I I 0.6.",
"|.<.<.X u+W.]+D.{+E.k+'.~+~+2.{.=+2+e+T V u+V z J.d.= ! v.{+>+o <+T.g.0 X E.a.{ _ ;+W.p+Z.A >+A.7+3 { E.Z B.Q.z.",
"|.{.{.T t+A.%+z ;+'+g+;.!+J.f.{.++2+e+z X g+H.X N.d.= , v.{+]+o <+T.a.z <+>+g.{ _ _+|+g+J.A >+E.k+s D.++Y =+;+z.",
"!.%. .H g+|+Z.O ]+b+(+Y *+A.x.{.;+2+t+o M ;+{+'.!+d.= = v.{+{+8 :.j.A.T n+(+p.3.8 4+m+Z.x.t >+Y.a+D !+]+Z =+>+z.",
"W  .A t ,+u+%+H _+g+2+Y Q.S.L.}.>+k+u+J C.>+>+X @+d.= $ /.*+]+8 :.H Z.X p+(+Q.(+j 4+o+x.w.k ]+(+4+b T.>+Y *+++z.",
"*. .B t ]+x+,+X _+n+}+R x.`.a.n.(+C+_+R u+;+W.t n.8.= @ = w.]+H n.X Z.V p+;+'+]+j a+n+U.L.t ]+2+~+f !+++O T.++M.",
"*.>.A T 5+x+4++.(+k+2+Y ++'+_.C.9+z+_+O k+x._.B n.8.= @ = w.]+g.Q R Z.T p+E.7+_+D n+0+:+^+T 2+4+!+b *+++T T.^+/+",
"e.-.>.T 5+x+}+7.}+>+>+Y ++'+}.C.y+a+#+O g+A.Z.Y m.0./ @ = v.T.w.B u %+'.o+U.e+_+D p+3+3+^+T 2+:+Z.8 J.%+'.J.~+F.",
"e.-.%.B ]+s+a+d+a+>+p.R ++x.,.C.D+_+z B 4+A.++Y D.g.5.= = d.T.%+t v ++,.1+h+h+_+s |+[+3+_+H 2+[+%+b *+Z.z O.~+F.",
"o.}.{.B ;+0+t+D.2+$+g.R ++p.,.i+r+]+8 c *+x.;+'.>.a.8.= = d.@+,+j j ;+@+:.w+0+_+b `.:+3+2+z _+s+B.8 !+=+O @+~+F.",
"o.3._.A ++(+v+7.]+++Q.Y $+Q.}.B+b+]+4 0 x.V.]+i.Q.p.8.= = d.&+,+3 b 2+]+V y+0+_+8 B.[+3+2+u }+z+w.7 !+*+O *+^+F.",
"G.8.2.E ;+{+9+X ++>+A.A ++Y.n./+U.]+_.p. .V.>+l.]+Y.J.! = v.~+;+b C.[+]+O g+s+2+3 V (+3+2+V t+n+@+8 =+'+C 3.T.z.",
"o.<.r.%.++Q.$+u ++>+g.R ;+++l.>.Q.:+V.q.c Z.p+l.]+[+=+^ = v.]+]+j ++[+]+T ;+x+2+_ _ _+3+{+T D+[+;+b ++!+j o O.z.",
"b.2.S.{.++x.E.z ;+{+g.B E.E.m.{.$+[+;+t j g+B+,.Q.[+S.= = 0.{+W.b ++{+W.A ;+g+7+_ _ _+[+W.V D+}+%+b ++J.b j L.z.",
"l.a.W.-.++x.a.%.;+>+g.t 0.f.f.t.%+%+Q.j Z h+h+ .f.V.a.p ; d.Y.a.4 U.Q.f.2.Q.x.`._ _ _+:+a.O B+++W.8 U.a.b j J.z."};
