/* XPM */
static char * explosion4_xpm[] = {
"32 32 11 1",
" 	c None",
".	c #D45226",
"+	c #D95427",
"@	c #D95626",
"#	c #DA582C",
"$	c #EC9C12",
"%	c #ED9E11",
"&	c #EDA017",
"*	c #FEFBFA",
"=	c #FFFDF9",
"-	c #FFFFFF",
"              +++.              ",
"          ++++++++++.           ",
"      +++++++@%$+++++++.       +",
"     +++++@%%%%%%%$@$++++.      ",
"    +++++@&-=%&----=%$++++.     ",
"    ++++@&--=%%$#=%%%%%$+++.    ",
"   ++++@%&--=%$+++@&---=$+++.   ",
"  ++++@%%%%%%%$++++#---=%$++.   ",
"  +++++@%%%%%$++++++@%%%%%$++.  ",
" +++++#-=%%$+++++++++++@%$@$+.  ",
" ++++@&-=%$+++++.  ++++++@%%$+. ",
" +++@%%%$+++++. .  ++++@%%&=$+. ",
" ++@%&=%$++++.     . +@%%&--*+. ",
"+++@%&=$+++. +.    . +@%%&-=$+. ",
"++++@&=%$++.          @%%%%$++. ",
"++++@%%%$+.           +@$@%$++. ",
"+++@&-=%$+. .      . +++@%%%$+. ",
"++@%&-=%$++.      . +++@%&=$++. ",
" +@%%%%$++++. .  +++++@%&-*+++. ",
" +@%&-=$++++++. +++++@%&--*+++. ",
" +@%&-=%$++++.  +++++@%&=%$+++. ",
" +@%%%%%%$++++++++++@%%%%$++++. ",
" +@%%%%%%$++++++@%$@%%%%%$+++.  ",
" ++@%%%&=%$@%%%%%%%%%%%%$@$++.  ",
" ++++@%%%%%%&-----=%%$@$@%%$.   ",
"  ++++@%%%&-------=%%%$++@$+.   ",
"   +++++@%&---=&-*@$@$+++++.   +",
"    +++++@&-=%%%%%$+++++++.    +",
"     +++++@%%%%%%$+++++++.     +",
"      ++++++@%$+++++++++.       ",
"        +++++++++++++.          ",
"            ++++++.             "};
