/* XPM */
static char * explosion6_xpm[] = {
"32 32 3 1",
" 	c None",
".	c #D95427",
"+	c #ED9E11",
"  .            ..+.     .       ",
" +         .+   ...    .+... .  ",
"+.  .    .+.      .    +.     . ",
"          .                   ..",
"                  .     .    .+ ",
"                ..            . ",
" +.            .        .     . ",
" .    ..      .                 ",
"           +.                .. ",
"          ++                  + ",
"  .+     ..            .+    .++",
"  ..                    .      .",
"                        .       ",
"          .            .       +",
"     .   .+..         ..       .",
"         ++.         ..       +.",
"    ..  ...                   . ",
"   ..                      . .  ",
"  . .                     .     ",
"          .          .          ",
"  .  ..   ++                   +",
"  .        .   .               .",
"  +        +. . +             . ",
"  +.             ++.         +. ",
"  +.            .           ..  ",
"               .             .  ",
"..    .             .           ",
".+     .                        ",
".+             .   .            ",
"  . .              ++           ",
"   .            +   .+.         ",
"             . ... .            "};
