/* XPM */
static char * explosion3_xpm[] = {
"32 32 12 1",
" 	c None",
".	c #D05125",
"+	c #D95427",
"@	c #DA5726",
"#	c #DA5B2F",
"$	c #E49810",
"%	c #EC9B12",
"&	c #ED9E11",
"*	c #EEA21A",
"=	c #FEF8F7",
"-	c #FEFBF6",
";	c #FFFFFF",
"                                ",
"                                ",
"         ++++.                  ",
"       +++++++++++++++.         ",
"      ++++++++++@&%+++++.       ",
"     ++@&%+@&&&%+++++++++.      ",
"     +@%++@&&&&&&&&&%+++++.     ",
"    +++++@*;-&*;-&&&*=#=+++.    ",
"   +++@*-&*;;;;;;-&&&&*=++++.   ",
"   ++@*-&*;;-&&*;-&&&&%+++++.   ",
"  ++++#-&*;;;;-*-*-&&&*=#-%++.  ",
"  +++@&&&&*;;-*;-*-&&*;=@*-%+.  ",
" +++@&&&&&&&*;-*;;;-&&&%@&&%+.  ",
" +++@&&&&&&*-&&*;;;;-&&%@&&%+.  ",
" ++@%@&&&&*-&*;-*-*;;-&%+@%++.  ",
" +#-&&&&&&&&*;-&*-*;-&%+@&&%+.  ",
" #;;-&&&&&*;;;-*;-&&&%+++@%+.   ",
" #;-&%@&&&*;;;;;-&&*-&&%++++.   ",
"  ;-&%@&&&*;-*;-&&*;-&&&%++.    ",
"  +@*-&&&&&*-&*-&*;-&&&&*=+.    ",
"   #;;-&&&&&*;;;;;;-&&&&*=+.    ",
"   +#-%@&&&&*;;-&*;-&&%#;-$     ",
"   +@&&%@&&&&*-&&&&&&%+#;-$     ",
"   ++@%++@&&&&&&&&&&%++#-&$     ",
"    ++++++@&&&&&%#;;=+++@%.     ",
"    +++@%++@&&&%@&&*-%+@&&$     ",
"     ++@&&%++++++@*-&&%+@$      ",
"      ++@&&%+++++@&&&%+++.      ",
"        ++++++++++@&%+++.       ",
"               ++++++++.        ",
"                 ++++.          ",
"                                "};
