/* XPM */
static char * explosion5_xpm[] = {
"32 32 4 1",
" 	c None",
".	c #D95427",
"+	c #ED9E11",
"@	c #FFFFFF",
"  ..           .@+.     .       ",
" .++. .    ...++++.... .......  ",
"..+..  ............... ..++.+@. ",
" ...    .... .+..  ... ......++.",
"  ..    .+.   +........+.. .... ",
"  .    +++    .+... ..+@.   ... ",
" ...  ..+.    ..     .++.    .+ ",
" ..+.... ..  ..       ....  ..  ",
"  .....   ....+       ..+.   .. ",
"  ....    .....        .+.    . ",
"  ..+@   ...++.        ....  ...",
"  ..+@    ..+@          .+.   +.",
"  ..+.    ..+.          .++.  +.",
" ....    ..@@          ...@.   .",
" .....  ..++.         ....+.. ..",
" .........+.         .... .+....",
"   +.......         .. .   +....",
"  .+.  @+.                 .....",
"  ... .+..          .     ..  ..",
"  ..  .. ..          .    .. +..",
"  @+ ..   ...         .  +.. +@.",
"  ....     ...+.        .... @+.",
"  ...      ...+..        . . .. ",
"  ...       ..++.....   ... ... ",
"  ..         ....  ... .... ..  ",
"         .    ..    ... ......  ",
".... .+....  ..     ..   ....   ",
"..@+..++........   .... ....    ",
"..... ....++@@+.....++.....     ",
"  ...  .....+.++@+++......      ",
"   .     ......++......         ",
"             .......            "};
