/* XPM */
static char * heart_xpm[] = {
"20 20 16 1",
" 	c None",
".	c #000000",
"+	c #060604",
"@	c #070704",
"#	c #0A0A07",
"$	c #340000",
"%	c #360000",
"&	c #370000",
"*	c #430000",
"=	c #510000",
"-	c #860000",
";	c #870000",
">	c #FE0000",
",	c #FF0000",
"'	c #FEFEFE",
")	c #FFFFFF",
"   .....    .....   ",
"   .....    .....   ",
" @.,>,,,.  .,,>;;.# ",
".=>))',>>..,,,,,,;&.",
".=>))',>>..,,,,,,;&.",
".=,)'>>>>>,,,,,,,;$.",
".=,))>,>>,,,,,>>,;$.",
".=>>>,>>>,>>,,>>,;%.",
".=>''>,>>>>>,,,>,;*.",
".=,)',,,>,,,,>,,>;*.",
" @.,>,,,>>>,>>>--.@ ",
" #.,,,,,>,,,,>>--.@ ",
"   ..,,,,,,,,>;..   ",
"    +.,>,>>>;;.+    ",
"     .>,,,>>;-.     ",
"      ..>,,;..      ",
"      ..,,,-..      ",
"        .--.        ",
"         ..         ",
"         ..         "};
