/* XPM */
static char * key_xpm[] = {
"29 32 6 1",
" 	c None",
".	c #000000",
"+	c #573F24",
"@	c #94672B",
"#	c #D8961A",
"$	c #F4CF52",
"                    ....     ",
"                  ..####..   ",
"                 .$#@@@@##.  ",
"                .$#@....@##. ",
"               .$#@.    .##. ",
"               .#@.      .#@.",
"              .#@.       .#@.",
"              .#@.       .#@.",
"              .#@.       .#@.",
"              .#@.      .$@. ",
"               .#@.    .$#@. ",
"               .###....##@.  ",
"              .#@######@@.   ",
"             .$#@..@@@@..    ",
"            .$#@.  ....      ",
"           .$#@.             ",
"          .$#@.              ",
"         .$#@.               ",
"        .$#@.                ",
"       .$#@.                 ",
"      .$#@.                  ",
"     .$#@.                   ",
"    .$#@+@.                  ",
"   .$#@.@##.                 ",
"  .$#@. .#@.                 ",
" .$#@+@. ..                  ",
".##@+@##.                    ",
".@@.@##@.                    ",
" .. .#@.                     ",
"     ..                      ",
"     ..                      ",
"                             "};
