/* XPM */
static char * knife_right_xpm[] = {
"20 11 4 1",
" 	c None",
".	c #000000",
"+	c #906421",
"@	c #D4D4D4",
"     ..             ",
"     ..             ",
"     ..             ",
" ................   ",
".++++..@@@@@@@@@@...",
".++++..@@@@@@@@@@...",
".++++..@@@@@@@@@@...",
" ................   ",
"     ..             ",
"     ..             ",
"     ..             "};
