/* XPM */
static char * knife_up_xpm[] = {
"11 20 4 1",
" 	c None",
".	c #000000",
"+	c #906421",
"@	c #D4D4D4",
"    ...    ",
"    ...    ",
"    ...    ",
"   .@@@.   ",
"   .@@@.   ",
"   .@@@.   ",
"   .@@@.   ",
"   .@@@.   ",
"   .@@@.   ",
"   .@@@.   ",
"   .@@@.   ",
"   .@@@.   ",
"   .@@@.   ",
"...........",
"...........",
"   .+++.   ",
"   .+++.   ",
"   .+++.   ",
"   .+++.   ",
"    ...    "};
