/* XPM */
static char * knife_diagonal_down_xpm[] = {
"18 18 4 1",
" 	c None",
".	c #000000",
"+	c #906421",
"@	c #D4D4D4",
"              .   ",
"             ...  ",
"            .+... ",
"       ..  .+++...",
"       ....+++++. ",
"        ...++++.  ",
"        ....++.   ",
"       .@@....    ",
"      .@@@@...    ",
"     .@@@@@....   ",
"    .@@@@@.  ..   ",
"   .@@@@@.        ",
"  .@@@@@.         ",
" .@@@@@.          ",
"  .@@@.           ",
" ...@.            ",
"...               ",
" .                "};
