/* XPM */
static char * reward_xpm[] = {
"45 36 256 2",
"  	c None",
". 	c #0C0803",
"+ 	c #383019",
"@ 	c #50311E",
"# 	c #52331E",
"$ 	c #563420",
"% 	c #563520",
"& 	c #583520",
"* 	c #583522",
"= 	c #593621",
"- 	c #5A3622",
"; 	c #5B3621",
"> 	c #5B3721",
", 	c #5E3823",
"' 	c #5F3A22",
") 	c #613B22",
"! 	c #643B24",
"~ 	c #633C24",
"{ 	c #643C23",
"] 	c #643D25",
"^ 	c #653D22",
"/ 	c #653E25",
"( 	c #673E25",
"_ 	c #663F25",
": 	c #663F25",
"< 	c #683F26",
"[ 	c #693F25",
"} 	c #693F26",
"| 	c #684026",
"1 	c #694027",
"2 	c #6A4024",
"3 	c #6A4026",
"4 	c #6A4026",
"5 	c #684127",
"6 	c #694126",
"7 	c #6B4125",
"8 	c #6B4127",
"9 	c #694228",
"0 	c #6D4127",
"a 	c #6C4227",
"b 	c #6E4227",
"c 	c #6D4327",
"d 	c #6D4328",
"e 	c #6F4328",
"f 	c #6B452A",
"g 	c #704427",
"h 	c #704429",
"i 	c #664D2C",
"j 	c #704A2D",
"k 	c #6C502E",
"l 	c #6B512D",
"m 	c #6D512F",
"n 	c #6B5230",
"o 	c #6C522F",
"p 	c #735134",
"q 	c #6F5331",
"r 	c #6F5431",
"s 	c #6F5530",
"t 	c #765537",
"u 	c #B53F59",
"v 	c #725932",
"w 	c #C14160",
"x 	c #775D39",
"y 	c #7D5E38",
"z 	c #7F5E37",
"A 	c #7E5F37",
"B 	c #7D6039",
"C 	c #7D603A",
"D 	c #7E6037",
"E 	c #7D603C",
"F 	c #C14C60",
"G 	c #846544",
"H 	c #B55A5A",
"I 	c #907844",
"J 	c #937B45",
"K 	c #C66962",
"L 	c #99844B",
"M 	c #9D844B",
"N 	c #9A845D",
"O 	c #A3884E",
"P 	c #A18A61",
"Q 	c #CB8064",
"R 	c #A58E53",
"S 	c #A28E65",
"T 	c #A58E65",
"U 	c #A68F66",
"V 	c #A78F64",
"W 	c #A78F65",
"X 	c #AF975B",
"Y 	c #B0986B",
"Z 	c #B09A66",
"` 	c #B69C5B",
" .	c #B79D57",
"..	c #B39D6E",
"+.	c #B89D5C",
"@.	c #B89E5C",
"#.	c #BA9E5C",
"$.	c #C39C60",
"%.	c #BBA05E",
"&.	c #BBA15E",
"*.	c #BCA15D",
"=.	c #B8A274",
"-.	c #B8A371",
";.	c #BFA45D",
">.	c #C7A263",
",.	c #C0A663",
"'.	c #C2A75E",
").	c #C6A95B",
"!.	c #C6AA5F",
"~.	c #CEA964",
"{.	c #CEAA66",
"].	c #D1AA69",
"^.	c #C3AE7C",
"/.	c #CAAE63",
"(.	c #C7AE70",
"_.	c #CAAE65",
":.	c #CBAE62",
"<.	c #CBAF66",
"[.	c #CDAF64",
"}.	c #CDB069",
"|.	c #D9AD6D",
"1.	c #C9B17C",
"2.	c #D5B068",
"3.	c #C9B27D",
"4.	c #CAB27D",
"5.	c #CCB374",
"6.	c #CFB369",
"7.	c #D0B368",
"8.	c #CAB380",
"9.	c #D6B16C",
"0.	c #CBB380",
"a.	c #CFB46D",
"b.	c #D1B466",
"c.	c #DAB16F",
"d.	c #CCB482",
"e.	c #CBB67F",
"f.	c #DAB36E",
"g.	c #D4B667",
"h.	c #D5B76C",
"i.	c #D1B878",
"j.	c #D8B76B",
"k.	c #D4B86E",
"l.	c #D4B873",
"m.	c #DFB571",
"n.	c #DDB66F",
"o.	c #D6B96D",
"p.	c #D7B96A",
"q.	c #D7BA6E",
"r.	c #D9BA68",
"s.	c #D4BB7B",
"t.	c #D8BB6E",
"u.	c #DEB971",
"v.	c #DCBA6E",
"w.	c #D9BB70",
"x.	c #DABB6F",
"y.	c #E1B976",
"z.	c #DCBC67",
"A.	c #DEBC68",
"B.	c #E1BB72",
"C.	c #DCBD70",
"D.	c #DEBE6B",
"E.	c #DCBF72",
"F.	c #D3C08B",
"G.	c #E1BE74",
"H.	c #DFBF71",
"I.	c #DCC07C",
"J.	c #E1C06D",
"K.	c #DEC173",
"L.	c #DFC172",
"M.	c #E0C172",
"N.	c #E0C174",
"O.	c #E4C073",
"P.	c #DCC27D",
"Q.	c #DBC285",
"R.	c #DEC27D",
"S.	c #E2C26F",
"T.	c #E2C272",
"U.	c #DDC37E",
"V.	c #E0C375",
"W.	c #E0C377",
"X.	c #E0C378",
"Y.	c #E3C36D",
"Z.	c #E0C47A",
"`.	c #E5C46D",
" +	c #E6C376",
".+	c #E5C46F",
"++	c #DAC58F",
"@+	c #E1C57D",
"#+	c #E6C570",
"$+	c #E6C573",
"%+	c #E1C782",
"&+	c #E8C771",
"*+	c #E7C775",
"=+	c #E8C773",
"-+	c #E2C881",
";+	c #E1C886",
">+	c #E8C877",
",+	c #E3C983",
"'+	c #E9C973",
")+	c #E9C975",
"!+	c #E9C976",
"~+	c #EBCA74",
"{+	c #EACA78",
"]+	c #EBCA76",
"^+	c #E9CB7D",
"/+	c #E0CC93",
"(+	c #EBCB78",
"_+	c #E8CB87",
":+	c #E6CC8B",
"<+	c #ECCC79",
"[+	c #EDCC76",
"}+	c #EDCC78",
"|+	c #EECD77",
"1+	c #E3CE95",
"2+	c #EECD79",
"3+	c #EECD7A",
"4+	c #E9CE89",
"5+	c #EBCE84",
"6+	c #EFCE7A",
"7+	c #EECF7A",
"8+	c #E9CF8D",
"9+	c #F0CF79",
"0+	c #F0CF7B",
"a+	c #F0CF7D",
"b+	c #E6D096",
"c+	c #EBD089",
"d+	c #F1D07C",
"e+	c #F1D07E",
"f+	c #F0D17C",
"g+	c #EBD192",
"h+	c #F2D17D",
"i+	c #F2D17F",
"j+	c #F1D27D",
"k+	c #F1D282",
"l+	c #F2D280",
"m+	c #F2D381",
"n+	c #F3D380",
"o+	c #ECD496",
"p+	c #F2D485",
"q+	c #F2D489",
"r+	c #EDD59A",
"s+	c #F3D584",
"t+	c #F2D78F",
"u+	c #F5D78D",
"v+	c #F6D78A",
"w+	c #EED89D",
"x+	c #EFD89C",
"y+	c #F3D894",
"z+	c #F8DA8F",
"A+	c #F9DD95",
"B+	c #F6DEA1",
"C+	c #FADF9B",
"D+	c #F9E0A0",
"E+	c #F9E1A3",
"F+	c #FCE19E",
"G+	c #FCE4A4",
"          F.:+H.J @ & ) ) ) ) { ~ ~ ~ ~ ! { { { { { { { { { ^ ^ ^ { ( / ^.j.g. .          ",
"          C+d+[.% = | 3 3 8 8 8 7 8 8 8 0 a a a a b b b b c e e e e e e G 4+#+Y.          ",
"        B+l+]+v $ ] 3 3 3 8 8 8 7 8 8 8 0 a a a a b b b b c e e e e e e e ..>+#+p.        ",
"      /+A+d+#.$ - 3 3 3 3 8 8 8 7 8 8 8 8 a a a a b b b b c e e e e e e e j ;+#+.+;.      ",
"      E+n+]+s $ ~ ( ( ( _ _ _ [ [ < < < } 3 3 3 3 3 3 3 3 8 7 7 7 8 8 0 0 a Y >+#+r.      ",
"    ++C+h+_.$ - 3 3 3 3 3 8 8 8 7 8 8 8 0 a a a a b b b b c e e e e e e e h p _+#+.+ .    ",
"    r+v+h+M $ ~ 3 3 3 3 3 8 8 8 7 8 8 8 0 a a a a b b b b c e e e e e e e h h 1.#+#+:.    ",
"    G+j+2+v $ ] _ _ _ ( ( _ _ _ [ < < < < 3 3 3 3 3 3 3 3 8 8 8 8 8 8 8 8 8 a P ^+#+D.    ",
"    C+h+T.# ; 3 3 3 3 3 3 8 8 8 7 8 8 8 0 a a a a b b b b c e e e e e e e h h t c+#+`.    ",
"  1+z+h+<.$ ) 3 3 3 3 3 3 8 8 8 7 8 8 8 0 a a a a b b b b c e e e e e e e h h e Q.#+#+!.  ",
"  w+s+h+#.$ ~ _ _ _ _ ( ( _ _ _ [ < < < < 3 3 3 3 3 3 3 3 3 3 3 3 3 3 3 3 7 7 b 3.#+#+b.  ",
"  E+h+h+O % 3 3 3 3 3 3 3 8 8 8 7 8 8 8 0 a a a a b b b b c e e e e e e e h h g =.*+#+D.  ",
"  F+h+h+I = 3 3 3 3 3 3 3 8 8 8 7 8 8 9 f 5 _ _ _ | b b b c e e e e e e e h h g V ^+#+Y.  ",
"  C+h+d+Z S T T T T T T T U U U U U N x+y+>+!+!+!+H.N V V V V V V U U U U U U U =.5+#+`.  ",
"/+A+h+h+i+i+i+i+e+e+e+e+e+e+f+a+a+0+E.D+h+d+o.d+h+<+t.<+(+(+(+{+{+{+]+]+]+!+)+)+*+#+#+`.'.",
"b+u+0+0+0+6+6+6+7+2+2+7+}+}+[+]+]+~+x.t+h+H.. H.h+2+g.&+&+&+&+#+#+#+#+#+#+#+.+.+.+.+.+`.!.",
"i.,+,+,+,+,+,+%+%+%+%+-+%+%+%+%+-+%+i.k+h+0++ d+h+2+5.U.U.U.R.R.P.P.P.I.I.I.I.I.I.I.I.I.(.",
"o.<+<+<+<+(+(+{+{+)+!+)+*+=+*+=+=+*+b.2+h+6+_.0+h+>+g.S.S.S.J.J.J.D.D.D.D.A.A.z.A.z.A.A.).",
"^.l.6.6.R n n r r s s s q q q q o o i o.L.L.L.L.K.,.n m m m m m m o l k k k k k ..a.[./.L ",
"w+s+0+6+` $ ' 6 6 6 8 8 8 8 8 8 8 8 8 ; & & & = ; ; 0 a c c c c c d e e e e c h d.e+[+~+` ",
"w+n+7+6++.$ ! 8 8 8 7 7 8 8 8 8 0 a a a a a b b b b b c e e e e e e e e e e h h d.d+]+~+` ",
"x+y.F ].+.$ ( 8 8 8 7 7 8 8 8 8 0 a a a a a b b b b b c e e e e e e e e e e h h 8.m.F ~.@.",
"r+G.H {.+.$ { _ _ _ _ _ _ _ _ _ < < < < < < } } } } } 3 3 3 3 3 3 1 1 1 1 8 8 8 8.u.H ~.@.",
"x+h+0+6+#.% 3 8 8 8 7 7 8 8 8 8 0 a a a a a b b b b b c e e e e e e e e e e h h 8.9+[+~+#.",
"r+d+0+6+#.* 3 8 8 8 7 7 8 8 8 8 0 a a a a a b b b b b c e e e e e e e e e e h h 4.9+[+~+&.",
"o+G.K 9.#.; 3 8 8 8 7 7 8 8 8 8 0 a a a a a b b b b b c e e e e e e e e e h h h 4.B.K 2.%.",
"o+n.u >.#.; ( _ _ _ _ _ _ _ _ _ [ [ [ [ [ [ [ [ [ [ [ 3 2 2 2 2 3 3 3 3 3 7 7 7 3.f.u >.*.",
"g+d+]+|+#., 3 8 8 8 7 7 8 8 8 8 0 a a a a a b b b b b c e e e e e e e e e e h h 3.9+=+&+*.",
"g+d+0+6+#.' 3 8 8 8 7 7 8 8 8 8 0 a a a a a b b b b b c e e e e e e e e e e h h 3.9+[+~+&.",
"g+ +Q v.%.' 3 8 8 8 8 7 8 8 8 8 0 a a a a a b b b b b c e e e e e e e e e e h h 4.O.Q j.%.",
"g+c.w $.%., _ _ _ _ _ _ _ _ _ _ [ [ [ [ [ [ [ [ [ [ [ 3 2 2 2 2 3 3 3 3 3 8 8 7 8.|.w $.%.",
"g+d+C.]+%., 3 8 8 8 7 7 8 8 8 8 0 a a a a a b b b b b c e e e e e e e e e e h h 8.6+p.=+*.",
"g+d+0+6+%.' 3 8 8 8 7 7 8 8 8 8 0 a a a a a b b b b b c e e e e e e e e e e h h 8.0+[+&+*.",
"e.k.k.k.X x E C C C C B C C C B B B B B B D D D D D y D y A A A A y y z z y y y -.h.7.7.R ",
"8+q+p+p+p+p+p+p+p+k+k+m+m+m+l+l+l+i+i+j+i+h+h+h+f+d+7+0+0+6+6+3+3+<+<+(+(+{+{+>+!+!+>+>+}.",
"s.@+@+@+Z.Z.Z.X.X.X.X.X.X.X.W.W.V.V.V.K.N.N.M.M.H.H.L.H.E.H.E.C.C.x.x.w.w.t.t.q.t.o.o.o.&."};
