/* XPM */
static char * star_xpm[] = {
"20 20 113 2",
"  	c None",
". 	c #060604",
"+ 	c #0C0B07",
"@ 	c #0D0C07",
"# 	c #101006",
"$ 	c #171610",
"% 	c #181710",
"& 	c #181812",
"* 	c #19190C",
"= 	c #1A1A12",
"- 	c #1D1C06",
"; 	c #1F1F16",
"> 	c #1F1F1B",
", 	c #212120",
"' 	c #232211",
") 	c #222221",
"! 	c #242318",
"~ 	c #23231C",
"{ 	c #242319",
"] 	c #24241C",
"^ 	c #26251C",
"/ 	c #252522",
"( 	c #252524",
"_ 	c #272726",
": 	c #29281D",
"< 	c #292921",
"[ 	c #2A291E",
"} 	c #2C2A1A",
"| 	c #2B2A22",
"1 	c #2D2C20",
"2 	c #2D2D2D",
"3 	c #31301F",
"4 	c #323020",
"5 	c #323124",
"6 	c #34321B",
"7 	c #333225",
"8 	c #333226",
"9 	c #323231",
"0 	c #35342B",
"a 	c #373628",
"b 	c #363636",
"c 	c #38372A",
"d 	c #39382B",
"e 	c #393938",
"f 	c #3B3A2B",
"g 	c #3E3C19",
"h 	c #3E3C21",
"i 	c #403F23",
"j 	c #424031",
"k 	c #414039",
"l 	c #454333",
"m 	c #444443",
"n 	c #4C490F",
"o 	c #484736",
"p 	c #4D4B10",
"q 	c #4E4B20",
"r 	c #4C4B47",
"s 	c #4F4D2C",
"t 	c #514F10",
"u 	c #504D2C",
"v 	c #4E4E4D",
"w 	c #50504C",
"x 	c #53513E",
"y 	c #515150",
"z 	c #515151",
"A 	c #575531",
"B 	c #585631",
"C 	c #57564D",
"D 	c #565656",
"E 	c #595843",
"F 	c #585858",
"G 	c #5B5A44",
"H 	c #5A5A50",
"I 	c #686517",
"J 	c #62615E",
"K 	c #64624B",
"L 	c #6B6818",
"M 	c #646464",
"N 	c #656564",
"O 	c #656565",
"P 	c #68675D",
"Q 	c #6D6A31",
"R 	c #6A6A6A",
"S 	c #6F6C40",
"T 	c #6C6C6C",
"U 	c #716E54",
"V 	c #77731B",
"W 	c #717065",
"X 	c #707070",
"Y 	c #717170",
"Z 	c #747367",
"` 	c #737373",
" .	c #757575",
"..	c #767676",
"+.	c #7F7E78",
"@.	c #83827C",
"#.	c #8C8721",
"$.	c #8D8921",
"%.	c #858585",
"&.	c #8A8A8A",
"*.	c #9B9625",
"=.	c #B0AB2B",
"-.	c #B3AE2C",
";.	c #B7B12D",
">.	c #B8B32D",
",.	c #BFBA2F",
"'.	c #C2BC32",
").	c #C2BC5A",
"!.	c #C8C232",
"~.	c #D0CA34",
"{.	c #D2CB35",
"].	c #D9D337",
"^.	c #EEE73D",
"                  Z H                   ",
"                _ ; G                   ",
"                e x ' >                 ",
"                f ].I E                 ",
"              O o {.,.$ b               ",
"              < ).{.{.g 0               ",
"              U ^.^.^.].= v             ",
"F m ) ( / ~ { B ^.^.^.^.6 | w y R ` m D ",
"A =.!.!.!.~.,.].^.^.^.^.^.^.;.;.V L - # ",
"+.3 ^.^.^.^.^.^.^.^.^.^.^.^.^.^.^.].i P ",
"  m l ^.^.^.^.^.^.^.^.^.^.^.^.^.^.4 @.  ",
"    F j !.^.^.^.^.^.^.^.^.^.^.#.7 &.    ",
"      M 5 -.^.^.^.^.^.^.^.{.t c         ",
"        R 8 ^.^.^.^.^.^.^.>.^ X         ",
"      . ] q ^.^.^.^.^.^.^.^.s W         ",
"      Y d ~.^.^.^.^.].^.^.^.$.[         ",
"        % ^.^.^.{.* h ^.^.^.].:  .      ",
"      J ! ^.^.Q & 9 2 1 V ].^.f %.      ",
"      + '.*.a , X   N z r } p u C       ",
"      @ S k T             ..5 n K       "};
