/* XPM */
static char * ninja_diagonal_down_xpm[] = {
"27 30 141 2",
"  	c None",
". 	c #101010",
"+ 	c #171614",
"@ 	c #191612",
"# 	c #181716",
"$ 	c #191715",
"% 	c #1B1715",
"& 	c #181815",
"* 	c #181816",
"= 	c #1A1816",
"- 	c #1B1815",
"; 	c #1B1816",
"> 	c #1C1815",
", 	c #1C1816",
"' 	c #1B1916",
") 	c #1B1917",
"! 	c #1C1915",
"~ 	c #1C1916",
"{ 	c #1C1917",
"] 	c #1C1918",
"^ 	c #1D1915",
"/ 	c #1C1919",
"( 	c #1D1916",
"_ 	c #1D1917",
": 	c #1D1918",
"< 	c #1A1A18",
"[ 	c #1E1918",
"} 	c #1B1A18",
"| 	c #1C1A15",
"1 	c #1C1A16",
"2 	c #191B16",
"3 	c #1C1A17",
"4 	c #1D1A16",
"5 	c #1D1A17",
"6 	c #1D1A18",
"7 	c #1A1A24",
"8 	c #1D1A19",
"9 	c #1E1A16",
"0 	c #1E1A17",
"a 	c #1E1A18",
"b 	c #1E1925",
"c 	c #1F1A18",
"d 	c #1C1B18",
"e 	c #1D1B16",
"f 	c #1D1B17",
"g 	c #1D1B18",
"h 	c #1E1B18",
"i 	c #1E1B19",
"j 	c #1F1B18",
"k 	c #1F1B19",
"l 	c #201B19",
"m 	c #201B1A",
"n 	c #1E1C17",
"o 	c #1E1C18",
"p 	c #3C1409",
"q 	c #1E1C19",
"r 	c #1E1C1A",
"s 	c #1F1B23",
"t 	c #1F1C18",
"u 	c #1F1C19",
"v 	c #1F1C1A",
"w 	c #201C18",
"x 	c #201C1A",
"y 	c #1E1D19",
"z 	c #1E1D1A",
"A 	c #1F1D19",
"B 	c #1F1D1A",
"C 	c #201D19",
"D 	c #201D1A",
"E 	c #211D1A",
"F 	c #211D1B",
"G 	c #1F1E1A",
"H 	c #201E1C",
"I 	c #211E19",
"J 	c #211E1C",
"K 	c #401609",
"L 	c #221E1B",
"M 	c #211F1B",
"N 	c #211F1C",
"O 	c #24211E",
"P 	c #4D190B",
"Q 	c #4E1A0C",
"R 	c #60210D",
"S 	c #64230F",
"T 	c #6B250D",
"U 	c #6D2812",
"V 	c #7A2911",
"W 	c #782A11",
"X 	c #7A2B10",
"Y 	c #772C14",
"Z 	c #7B2B13",
"` 	c #7B2C13",
" .	c #7D2C13",
"..	c #7B2D11",
"+.	c #7D2D13",
"@.	c #7D2D15",
"#.	c #7B2E15",
"$.	c #7C2E14",
"%.	c #7C2E15",
"&.	c #6E321C",
"*.	c #7D2E15",
"=.	c #7E2E14",
"-.	c #7E2E15",
";.	c #7D2F15",
">.	c #7A3015",
",.	c #7D2F16",
"'.	c #7E2F13",
").	c #7E2F14",
"!.	c #7E2F15",
"~.	c #7F2F15",
"{.	c #7E3016",
"].	c #832F14",
"^.	c #803017",
"/.	c #7E3118",
"(.	c #813118",
"_.	c #803216",
":.	c #733624",
"<.	c #8D341A",
"[.	c #8B371B",
"}.	c #7B7872",
"|.	c #827B6E",
"1.	c #B89644",
"2.	c #D8A54F",
"3.	c #B4ABA3",
"4.	c #D7A753",
"5.	c #D9A750",
"6.	c #B4ADA4",
"7.	c #B5ADA4",
"8.	c #B6AFA4",
"9.	c #B7AFA6",
"0.	c #C9B25E",
"a.	c #C9B359",
"b.	c #BAB2AA",
"c.	c #CCB55D",
"d.	c #E4B44D",
"e.	c #E4B550",
"f.	c #E4B64E",
"g.	c #E5B750",
"h.	c #E6B84F",
"i.	c #E6B951",
"j.	c #FFFFFF",
"                  ~ h D ] f { i                       ",
"                u e q F k o ( v k             &.(.X   ",
"              u f 4 f N q 1 q I 0 . .       {.../.    ",
"              & + - = # * < = ' / . .       ,.        ",
"            ~. .+.'.,.%. .!.V ).W T U Q   R S         ",
"            !.=.@. .$.Z -._.).;.^.*.Y P p K *.        ",
"            ! B q 0 c y u k 0 f 5 - { .     <.].#.    ",
"            a.d.5 w e.7 6 _ 5 h 5 : u .       :.>.` [.",
"            0.i.6 v f.s 5 ^ i 9 l [ { .               ",
"            c.g.D 3 h.b > E _ _ h . .                 ",
"              8 u 0 f u 1 f 5 G l . .                 ",
"                n u i 9 w d h . . .                   ",
"                  . . . . . . . .                     ",
"                      . . . . . , g 0 f .             ",
"                      ) j 3 h g 5 h v a 0             ",
"                    . q % j ~ u 5 a 6 C g 5 5         ",
"                  . . . 6 @ v 0 ' . . i i ( } .       ",
"                  . . . a m x ( 5 . . L 0 ' u .       ",
"                % r .   u 9 B A 0 D .     ~ 3 .       ",
"              2 % . .   . u h t i ] .     . . .       ",
"            5.2.. .     . . . . . . .     . . . .     ",
"          _ j.4.1.      D t 1 j i i . . .             ",
"        8.i O         6 { v 5 _ g D ^ u 5             ",
"      9.b.          ) M q H .     | B g $ . .         ",
"  }.7.|.          { h 6 . . .     . . . v . .         ",
"6.3.              J 6 _ .             . z f ; .       ",
"                  ; A .               . . . . . .     ",
"                  . .                       . . . .   ",
"                . . .                           . .   ",
"              . . . .                         . .     "};
