/* XPM */
static char * ninja_down_xpm[] = {
"29 30 212 2",
"  	c None",
". 	c #201F1D",
"+ 	c #23201F",
"@ 	c #23211F",
"# 	c #24211F",
"$ 	c #1F1D1C",
"% 	c #252220",
"& 	c #242220",
"* 	c #252221",
"= 	c #211E1D",
"- 	c #23201E",
"; 	c #1E1B1A",
"> 	c #262321",
", 	c #201D1C",
"' 	c #1C1918",
") 	c #6A2112",
"! 	c #97321A",
"~ 	c #9B341C",
"{ 	c #9C341C",
"] 	c #9E351C",
"^ 	c #9D351C",
"/ 	c #9B351D",
"( 	c #9A341C",
"_ 	c #822D18",
": 	c #5E2012",
"< 	c #6B220F",
"[ 	c #963519",
"} 	c #99371A",
"| 	c #9A371A",
"1 	c #9A381A",
"2 	c #9B3719",
"3 	c #9B381A",
"4 	c #9B371A",
"5 	c #882F16",
"6 	c #692311",
"7 	c #692210",
"8 	c #963619",
"9 	c #983719",
"0 	c #9C391A",
"a 	c #9D3B1B",
"b 	c #9D3A1A",
"c 	c #9E3B1A",
"d 	c #9E3B1B",
"e 	c #9D391A",
"f 	c #9B391A",
"g 	c #883116",
"h 	c #6C2311",
"i 	c #2C120F",
"j 	c #3D1810",
"k 	c #441911",
"l 	c #421A11",
"m 	c #431B11",
"n 	c #431A11",
"o 	c #461B11",
"p 	c #441B11",
"q 	c #441A11",
"r 	c #3C1710",
"s 	c #2F1410",
"t 	c #141313",
"u 	c #AC954D",
"v 	c #B3A074",
"w 	c #A09881",
"x 	c #100F0F",
"y 	c #A29C89",
"z 	c #B3A076",
"A 	c #B1994D",
"B 	c #B1974B",
"C 	c #B7AB8F",
"D 	c #767268",
"E 	c #B8AF97",
"F 	c #B09758",
"G 	c #846E38",
"H 	c #161413",
"I 	c #1D1A1A",
"J 	c #DEBA60",
"K 	c #E8CB94",
"L 	c #D1C5A7",
"M 	c #D5CCAE",
"N 	c #EACD93",
"O 	c #E5BD61",
"P 	c #E5BC61",
"Q 	c #EAD9B4",
"R 	c #9A9585",
"S 	c #EEE0C0",
"T 	c #E2BC6B",
"U 	c #A88A47",
"V 	c #191716",
"W 	c #1D1A19",
"X 	c #DAB359",
"Y 	c #DFB359",
"Z 	c #CAAC59",
"` 	c #0D0C0D",
" .	c #A78846",
"..	c #E5BE63",
"+.	c #E6BE63",
"@.	c #534624",
"#.	c #0F0E0E",
"$.	c #E3BB5F",
"%.	c #E2B85E",
"&.	c #A68745",
"*.	c #191816",
"=.	c #1F1C1B",
"-.	c #968548",
";.	c #BC9F54",
">.	c #DBB55D",
",.	c #BC9C50",
"'.	c #BD9D50",
").	c #D0AC59",
"!.	c #E5BE64",
"~.	c #E4BD62",
"{.	c #C1A153",
"].	c #BD9D51",
"^.	c #C6A454",
"/.	c #E3BA60",
"(.	c #A28E4B",
"_.	c #756637",
":.	c #1E1C1B",
"<.	c #211E1C",
"[.	c #9C8546",
"}.	c #E6C365",
"|.	c #E6C467",
"1.	c #E7C467",
"2.	c #E6C367",
"3.	c #E6C468",
"4.	c #E6C366",
"5.	c #E4C064",
"6.	c #4E4429",
"7.	c #1B1918",
"8.	c #161515",
"9.	c #1B1919",
"0.	c #252321",
"a.	c #262320",
"b.	c #171616",
"c.	c #181717",
"d.	c #211F1D",
"e.	c #242221",
"f.	c #262421",
"g.	c #242321",
"h.	c #171615",
"i.	c #191817",
"j.	c #1F1D1B",
"k.	c #1E1C1A",
"l.	c #1B1917",
"m.	c #121111",
"n.	c #22201E",
"o.	c #121211",
"p.	c #131212",
"q.	c #121212",
"r.	c #232120",
"s.	c #252322",
"t.	c #272321",
"u.	c #221F1E",
"v.	c #242120",
"w.	c #1C1A19",
"x.	c #161514",
"y.	c #262422",
"z.	c #262322",
"A.	c #181616",
"B.	c #151515",
"C.	c #1D1B1A",
"D.	c #201E1D",
"E.	c #1A1918",
"F.	c #191717",
"G.	c #151414",
"H.	c #171515",
"I.	c #171514",
"J.	c #C1A051",
"K.	c #1E1C14",
"L.	c #1D1B19",
"M.	c #141312",
"N.	c #131213",
"O.	c #C2A152",
"P.	c #C29F52",
"Q.	c #856D38",
"R.	c #DDB660",
"S.	c #241F15",
"T.	c #111010",
"U.	c #121110",
"V.	c #121010",
"W.	c #E1B85F",
"X.	c #DFB55D",
"Y.	c #9C7F42",
"Z.	c #181716",
"`.	c #2A2625",
" +	c #252320",
".+	c #E1B960",
"++	c #E2B960",
"@+	c #CAA656",
"#+	c #BEBEBC",
"$+	c #A7A6A4",
"%+	c #272522",
"&+	c #272422",
"*+	c #B7B7B6",
"=+	c #B9B8B6",
"-+	c #201E1C",
";+	c #221F1D",
">+	c #CDCDCB",
",+	c #848381",
"'+	c #7E7D7B",
")+	c #CBCBC8",
"!+	c #B2B2AF",
"~+	c #1D1C1A",
"{+	c #1B1A19",
"]+	c #22201F",
"^+	c #1C1B19",
"/+	c #1B1A18",
"(+	c #BBBBB9",
"_+	c #B8B8B6",
":+	c #1C1B1A",
"<+	c #1A1817",
"[+	c #AEADAC",
"}+	c #92918F",
"                      . + @ # # # # # @ @ @               ",
"                    $ @ % % % % & % * % % & =             ",
"                    - & & % & % % % % % & & @ =           ",
"                  ; # % * * * * % % % > % > % , '         ",
"                  ) ! ~ { ] { ^ ^ ^ ^ ] ] / ( _ :         ",
"                  < [ } | | 1 2 1 3 3 1 4 3 | 5 6         ",
"                  7 8 9 1 0 a b b b c d e f 1 g h         ",
"                  i j k l m n o p l l p o p q r s         ",
"                  t u v w x y z A B C D x E F G H         ",
"                  I J K L x M N O P Q R x S T U V         ",
"                  W X Y Z x `  ...+.@.#.x $.%.&.*.        ",
"                  =.-.;.>.,.'.).!.~.{.].^./.(._.V         ",
"                  :.<.[.}.|.1.|.2.|.3.3.4.5.6.7.8.        ",
"                    9.= % 0.> > > > 0.a.% + b.c.          ",
"                      d.& e.0.0.* f.* g.d.h.              ",
"                      i.j.k.k.j.j.j.j.j.l.m.              ",
"              n.% 0.m.o.o.m.m.m.o.p.p.p.q.m.p.$ r.s.      ",
"              + > t.u.- @ # @ & v.v.& @ & @ n.@ % 0.,     ",
"              @ #   w.u.> 0.0.0.0.0.> 0.> 0.k.$ n.% $ ,   ",
"            0.> @   x., > y.> y.f.y.y.y.z.0.A.B.  > C.=.  ",
"            D.E.F.  G.j.0.0.0.0.0.> 0.0.0.% H.x.  m.I.h.8.",
"            J.K.p.  p.V w.W w.w.w.W C.L.L.w.M.N.  O.P.Q.b.",
"            R.S.m.  T.T.T.T.T.T.T.U.V.T.U.T.T.T.  W.X.Y.Z.",
"            `.+ ,   * 0.0.% % 0. +0.0.& 0.0.& v.  .+++@+  ",
"        #+$+        0.y.%+y.y.&+y.&+y.f.> y.& 0.          ",
"        *+=+        % > @ -+& & % % & ;+d.0.& n.          ",
"      >+,+'+        0.y.D.Z.          G.w.> 0.C.T.8.      ",
"    )+!+          D.:.~+{+                ]+~+^+/+        ",
"  (+_+$+          :+= :.                  -+:.<+A.        ",
">+[+}+                                                    "};
