/* XPM */
static char * ninja_up_xpm[] = {
"24 30 116 2",
"  	c None",
". 	c #0A0B08",
"+ 	c #0A0C08",
"@ 	c #0B0C08",
"# 	c #0B0B09",
"$ 	c #0B0C09",
"% 	c #13120E",
"& 	c #13120D",
"* 	c #13130E",
"= 	c #14130E",
"- 	c #14130D",
"; 	c #0F0F0B",
"> 	c #181711",
", 	c #181611",
"' 	c #181712",
") 	c #191711",
"! 	c #171610",
"~ 	c #14130F",
"{ 	c #0C0D09",
"] 	c #0C0C09",
"^ 	c #100F0B",
"/ 	c #191712",
"( 	c #191812",
"_ 	c #161510",
": 	c #0C0D0A",
"< 	c #1A1711",
"[ 	c #1B1811",
"} 	c #1A1812",
"| 	c #1A1811",
"1 	c #171510",
"2 	c #1D0C08",
"3 	c #461A0E",
"4 	c #732913",
"5 	c #732A14",
"6 	c #732A13",
"7 	c #742B14",
"8 	c #742A14",
"9 	c #6A2612",
"0 	c #270B06",
"a 	c #220B07",
"b 	c #511C0D",
"c 	c #842C10",
"d 	c #842C0F",
"e 	c #852D10",
"f 	c #852D0F",
"g 	c #852C0F",
"h 	c #852C10",
"i 	c #7A280E",
"j 	c #2B0B05",
"k 	c #1F0D09",
"l 	c #4D1B0D",
"m 	c #7C2B11",
"n 	c #7B2A10",
"o 	c #7B2B10",
"p 	c #7B2A11",
"q 	c #7C2A11",
"r 	c #742710",
"s 	c #280B06",
"t 	c #191813",
"u 	c #151410",
"v 	c #12120D",
"w 	c #0D0E0A",
"x 	c #10100C",
"y 	c #0E0E0B",
"z 	c #15140F",
"A 	c #11100D",
"B 	c #0E0E0A",
"C 	c #15130F",
"D 	c #11110D",
"E 	c #0D0D0A",
"F 	c #14140F",
"G 	c #12110E",
"H 	c #12100D",
"I 	c #12110D",
"J 	c #0F0F0C",
"K 	c #11100E",
"L 	c #0F0E0B",
"M 	c #0D0E0B",
"N 	c #181610",
"O 	c #171611",
"P 	c #11100C",
"Q 	c #0E0D0A",
"R 	c #11110C",
"S 	c #0B0A0A",
"T 	c #16140F",
"U 	c #10100B",
"V 	c #0C0B0A",
"W 	c #0C0B09",
"X 	c #58492E",
"Y 	c #D19B37",
"Z 	c #514224",
"` 	c #090B08",
" .	c #090B07",
"..	c #C59840",
"+.	c #9C7833",
"@.	c #46423A",
"#.	c #675F50",
"$.	c #654E26",
"%.	c #272014",
"&.	c #16150F",
"*.	c #6E5933",
"=.	c #605F57",
"-.	c #66655B",
";.	c #4B473D",
">.	c #0A0B07",
",.	c #44443C",
"'.	c #6C6C62",
").	c #626258",
"!.	c #13130F",
"~.	c #100F0C",
"{.	c #8A8A7E",
"].	c #64645A",
"^.	c #141310",
"/.	c #13120F",
"(.	c #090A07",
"_.	c #0B0B08",
"                  . . + @ @ . # . $ +           ",
"                  % & * & & = & - % *           ",
"              ; = > > > , ' ' ) ) ) ! ~ {       ",
"            ] ^ / / / , ) ) ( ( ( / > _ .       ",
"            : ; ) ) ) < < [ } | } < } 1 .       ",
"            2 3 4 5 6 5 7 5 5 5 5 5 8 9 0       ",
"            a b c d d e f g g g d c h i j       ",
"            k l m n n o m n p q q m m r s       ",
"            ] ; ( t u ' ( ( } t ( v w x .       ",
"            ] y / / / ) ) ) ( ) > z A A .       ",
"            ] B , z z C z z z z z % D A .       ",
"            $ E F G D G A A H I G x J y .       ",
"            $ . $ I G H A A A K A y . . .       ",
"          ] & _ z . . . . @ @ . + . . .         ",
"        E v _ ! z = ~ * = F = = * ~ F * ]       ",
"        . ~ > _ G ) > > ) / > ) > , ' ! L M     ",
"        . _ > _ G > N > > > ) > ) , O ) > y     ",
"        . z P . { , , > > > > , , P ; > > w     ",
"    y Q z N R . { > > > > > , > > R $ w ' ~ y : ",
"    E { ~ v P { { > > > > > ' > > P . @ * G ; E ",
"    M E S @   E @ T T z _ z z z _ U .   . V W : ",
"    w X Y Z   E + . . ` . . `  .. . +   . ..+.: ",
"  w @.#.$.%.  y @ _ &.&._ &._ &._ U @ $   *.Z E ",
"] =.-.;.y E   B @ > z ~ ~ ~ ~ ~ ! &.P >.    E y ",
",.'.).!.@     B @ > G ~.J J ; ~.= ! * >.        ",
"{.]._         B @ > G E . >.. . . * = @         ",
"^./.          E @ ! % E .     . . . . >.        ",
"              E . w { y       . J ~.B >.        ",
"            B ]  .>..         . w y E .         ",
"            ] (.` (. .        _.@ + + .         "};
