/* XPM */
static char * ninja_diagonal_up_xpm[] = {
"30 30 189 2",
"  	c None",
". 	c #25211E",
"+ 	c #262321",
"@ 	c #262320",
"# 	c #252220",
"$ 	c #221F1D",
"% 	c #201D1C",
"& 	c #24201F",
"* 	c #252321",
"= 	c #252221",
"- 	c #242220",
"; 	c #171514",
"> 	c #151313",
", 	c #131212",
"' 	c #121111",
") 	c #92361B",
"! 	c #8F341A",
"~ 	c #90351B",
"{ 	c #23201F",
"] 	c #141312",
"^ 	c #141313",
"/ 	c #96371B",
"( 	c #95361A",
"_ 	c #91351B",
": 	c #292422",
"< 	c #242120",
"[ 	c #171515",
"} 	c #151414",
"| 	c #161414",
"1 	c #99381B",
"2 	c #90351A",
"3 	c #782D1D",
"4 	c #7B2D1D",
"5 	c #7B2E1D",
"6 	c #7D2E1D",
"7 	c #7C2D1C",
"8 	c #7C2D1D",
"9 	c #7B2D1C",
"0 	c #782918",
"a 	c #752816",
"b 	c #6E2515",
"c 	c #551C11",
"d 	c #5C1D10",
"e 	c #652110",
"f 	c #98371A",
"g 	c #94361A",
"h 	c #973619",
"i 	c #9A361A",
"j 	c #9B3719",
"k 	c #9B371A",
"l 	c #983519",
"m 	c #8D3016",
"n 	c #6B220F",
"o 	c #69210F",
"p 	c #65200F",
"q 	c #93351A",
"r 	c #99371A",
"s 	c #9A371A",
"t 	c #9B371B",
"u 	c #9A371B",
"v 	c #99361B",
"w 	c #97351A",
"x 	c #923318",
"y 	c #7C2A13",
"z 	c #642110",
"A 	c #8C351B",
"B 	c #8C341A",
"C 	c #6C2715",
"D 	c #85311D",
"E 	c #8A311D",
"F 	c #8A321D",
"G 	c #8C321D",
"H 	c #8D321D",
"I 	c #8C311D",
"J 	c #8E321D",
"K 	c #8B311D",
"L 	c #8A301B",
"M 	c #7E2A16",
"N 	c #6B2414",
"O 	c #591F13",
"P 	c #93371B",
"Q 	c #91351A",
"R 	c #05060D",
"S 	c #262220",
"T 	c #211F1D",
"U 	c #151515",
"V 	c #95371B",
"W 	c #E6C165",
"X 	c #2F2B1B",
"Y 	c #1B1A19",
"Z 	c #22201E",
"` 	c #161515",
" .	c #95371C",
"..	c #97371B",
"+.	c #E3BB62",
"@.	c #2C2819",
"#.	c #1B1918",
"$.	c #151413",
"%.	c #E3BF65",
"&.	c #2D291A",
"*.	c #23201E",
"=.	c #151514",
"-.	c #1D191B",
";.	c #221F1F",
">.	c #1C1A19",
",.	c #151415",
"'.	c #1E1B1B",
").	c #24211F",
"!.	c #1F1D1C",
"~.	c #1F1C1B",
"{.	c #1E1C1B",
"].	c #181615",
"^.	c #141212",
"/.	c #1E1C19",
"(.	c #201E1D",
"_.	c #171615",
":.	c #171516",
"<.	c #121211",
"[.	c #131211",
"}.	c #181616",
"|.	c #191716",
"1.	c #1C1A18",
"2.	c #1C1918",
"3.	c #211F1E",
"4.	c #262422",
"5.	c #242321",
"6.	c #BDBCBA",
"7.	c #CACAC7",
"8.	c #262322",
"9.	c #C1C1BF",
"0.	c #BCBCB9",
"a.	c #B4B4B2",
"b.	c #211E1D",
"c.	c #918F8D",
"d.	c #908E8D",
"e.	c #C7C7C4",
"f.	c #C7C7C5",
"g.	c #C9C9C7",
"h.	c #8D8B89",
"i.	c #868482",
"j.	c #272523",
"k.	c #1A1818",
"l.	c #272422",
"m.	c #23211F",
"n.	c #161415",
"o.	c #9A9997",
"p.	c #918F8E",
"q.	c #C5C5C3",
"r.	c #C8C8C5",
"s.	c #CAC9C7",
"t.	c #888684",
"u.	c #221F1E",
"v.	c #161514",
"w.	c #1D1B1A",
"x.	c #181716",
"y.	c #7B7977",
"z.	c #C2C2C0",
"A.	c #C2C1BF",
"B.	c #807D7B",
"C.	c #555352",
"D.	c #38311C",
"E.	c #A08847",
"F.	c #9F8445",
"G.	c #826C39",
"H.	c #0F0E0F",
"I.	c #100F0F",
"J.	c #1A1817",
"K.	c #514F4C",
"L.	c #353332",
"M.	c #4F4324",
"N.	c #E2BA61",
"O.	c #E1B760",
"P.	c #BE9C51",
"Q.	c #22201F",
"R.	c #504525",
"S.	c #E5BD63",
"T.	c #E4BB62",
"U.	c #C2A054",
"V.	c #201E1C",
"W.	c #1F1D1B",
"X.	c #DBBA61",
"Y.	c #DBBB62",
"Z.	c #B59A51",
"`.	c #131313",
" +	c #262421",
".+	c #191817",
"++	c #21201E",
"@+	c #171616",
"#+	c #191616",
"                    . + + + + @ + # # $                     ",
"                  % & # * # + * = + - ; > , '       ) ! ~   ",
"                  { # = # = # # # # - ] ^ ^ >       / ( _   ",
"                : * * = # = = - - - < [ } | >     1 / 2     ",
"                3 4 5 6 7 8 4 8 7 9 9 0 a b c d e f g       ",
"                h i i i i j i i k i k i l m n o p q         ",
"                f r s s s s s s t s u k v w x y z   A B     ",
"                C D E F G H H H I J K H H L M N O   P Q     ",
"                R S S - - - - - = * * = # T ^ ^ U   V g V   ",
"                W X Y * * * * * * * * * * Z ^ > `        ...",
"                +.@.#.# * + + * + + * + = Z > $.U           ",
"                %.&.#.* + + * + + * + + + *.$.} =.          ",
"                -.;.* = * * + + * * * + >., $.} ,.          ",
"                '.*.).< - - # - !.~.{.~.]., ^.^ ^           ",
"                  /.(.Z { < * + _.' ' ' ' , ^               ",
"                          :.^ <., , [., , <.                ",
"                            }.> |.1.1.1.2.>.                ",
"                                3.4.4.4.4.+ 5.              ",
"6.7.7.                    # + @ = 8.4.4.4.8.* = #           ",
"9.0.a.                    + * # % b.+ + + * * # <           ",
"  c.d.e.f.g.h.i.        j.+ + = |.k.+ 4.l.4.+ = m.n.        ",
"        o.p.q.r.s.t.    * * u.] ' v.+ 4.8.+ * w.x.^         ",
"          y.9.z.A.B.C.D.E.F.G.H.I., $ u.*.u.T J.| '         ",
"                  K.L.M.N.O.P.I.I.I.I.I.I.I.I.I.I.I.        ",
"                    Q.R.S.T.U.I.#.V.V.V.!.W.% ~.>.]         ",
"                        X.Y.Z.I.!.4.4.l.4.4.+ m.T `.        ",
"                              * -  +4. +4.4.4.{..+}         ",
"                      3.++(.T ).>.@+          | } ^ ^       ",
"                    + + * m.{ # #.            #+}.@+} ^     ",
"                    m.# * Y }                       ^ `.,   "};
