/* XPM */
static char * ninja_right_xpm[] = {
"26 30 181 2",
"  	c None",
". 	c #252220",
"+ 	c #252221",
"@ 	c #262321",
"# 	c #272422",
"$ 	c #262220",
"% 	c #262322",
"& 	c #23201E",
"* 	c #262221",
"= 	c #24211F",
"- 	c #221E1D",
"; 	c #24201F",
"> 	c #242120",
", 	c #242221",
"' 	c #252120",
") 	c #241D1C",
"! 	c #782B1C",
"~ 	c #7B2C1D",
"{ 	c #7D2E1D",
"] 	c #7E2E1D",
"^ 	c #7E2E1E",
"/ 	c #7D2E1E",
"( 	c #7A2D1D",
"_ 	c #602418",
": 	c #471B15",
"< 	c #651F0F",
"[ 	c #69200E",
"} 	c #983519",
"| 	c #993619",
"1 	c #9A3619",
"2 	c #9B3719",
"3 	c #9B371A",
"4 	c #7E2A13",
"5 	c #631E0E",
"6 	c #641F0F",
"7 	c #661F0E",
"8 	c #9A3719",
"9 	c #9B381A",
"0 	c #7F2B14",
"a 	c #65200F",
"b 	c #5C1D0D",
"c 	c #812E1A",
"d 	c #84301B",
"e 	c #84301C",
"f 	c #83301B",
"g 	c #82301B",
"h 	c #7E2E18",
"i 	c #7C2B15",
"j 	c #7F2D16",
"k 	c #822E16",
"l 	c #822D16",
"m 	c #802D16",
"n 	c #7F2D17",
"o 	c #7B2B15",
"p 	c #652312",
"q 	c #521B0F",
"r 	c #24201E",
"s 	c #232120",
"t 	c #1B1918",
"u 	c #100F0F",
"v 	c #141313",
"w 	c #131212",
"x 	c #23201F",
"y 	c #1F1C1C",
"z 	c #E4C166",
"A 	c #E1BA60",
"B 	c #D9B660",
"C 	c #D4BD85",
"D 	c #CAB37B",
"E 	c #111111",
"F 	c #181716",
"G 	c #201D1D",
"H 	c #E8C467",
"I 	c #E5BD63",
"J 	c #DDB760",
"K 	c #D9C691",
"L 	c #D0BE8F",
"M 	c #121111",
"N 	c #161515",
"O 	c #141312",
"P 	c #151313",
"Q 	c #25211F",
"R 	c #E7C266",
"S 	c #DDB860",
"T 	c #D2AF5F",
"U 	c #CAAD65",
"V 	c #1A1818",
"W 	c #171514",
"X 	c #201D1C",
"Y 	c #797041",
"Z 	c #796F3F",
"` 	c #746A3C",
" .	c #1D1B1A",
"..	c #6D643E",
"+.	c #696340",
"@.	c #1E1C1B",
"#.	c #1B1817",
"$.	c #1F1C1B",
"%.	c #221F1D",
"&.	c #221F1E",
"*.	c #0F0F0F",
"=.	c #121112",
"-.	c #111010",
";.	c #231F1E",
">.	c #111011",
",.	c #121110",
"'.	c #191716",
").	c #191717",
"!.	c #191616",
"~.	c #171616",
"{.	c #131313",
"].	c #131213",
"^.	c #161413",
"/.	c #171615",
"(.	c #181615",
"_.	c #242220",
":.	c #141211",
"<.	c #0A0908",
"[.	c #23211F",
"}.	c #101010",
"|.	c #22201F",
"1.	c #252321",
"2.	c #858583",
"3.	c #C1C2C0",
"4.	c #C2C3C1",
"5.	c #C3C4C3",
"6.	c #C4C5C3",
"7.	c #C3C3C2",
"8.	c #C3C4C2",
"9.	c #C5C5C3",
"0.	c #6C683D",
"a.	c #6B653A",
"b.	c #211F1D",
"c.	c #5B5B5A",
"d.	c #6A6A69",
"e.	c #6B6A6A",
"f.	c #6B6B6A",
"g.	c #727272",
"h.	c #676564",
"i.	c #868685",
"j.	c #C5C6C4",
"k.	c #C6C7C5",
"l.	c #C7C8C6",
"m.	c #D0D0CF",
"n.	c #CCA956",
"o.	c #DEB55D",
"p.	c #DCB25C",
"q.	c #151413",
"r.	c #B2B2B0",
"s.	c #CACAC7",
"t.	c #C9C9C7",
"u.	c #C8C8C6",
"v.	c #C7C8C5",
"w.	c #C6C6C4",
"x.	c #585756",
"y.	c #878583",
"z.	c #888683",
"A.	c #8A8886",
"B.	c #8C8A88",
"C.	c #8D8B88",
"D.	c #8B8A87",
"E.	c #8B8986",
"F.	c #CBA956",
"G.	c #DFB65D",
"H.	c #DFB55D",
"I.	c #6D6C6B",
"J.	c #767575",
"K.	c #767675",
"L.	c #7C7C7B",
"M.	c #D0AB57",
"N.	c #BD9B50",
"O.	c #1F1D1C",
"P.	c #151414",
"Q.	c #181616",
"R.	c #1D1C1B",
"S.	c #201E1D",
"T.	c #221F1F",
"U.	c #1C1A1A",
"V.	c #1C1A19",
"W.	c #191817",
"X.	c #211E1E",
"        . + @ @ @ @ # @ @ @ @ $                     ",
"        . @ % % @ @ % % % @ % .                     ",
"      & . * + + @ * @ @ @ @ @ + = -                 ",
"      ; > > > > > + + , + + + ' > )                 ",
"      ! ~ { ] ] { { ^ / ^ ^ / ^ ( _ :               ",
"  < [ } | | 1 1 1 1 1 2 2 2 3 1 | 4 5               ",
"  6 7 | | 1 | 8 | | 8 3 9 9 9 8 | 0 a               ",
"    b c d e f g g h i j k l m n o p q               ",
"      r > > s > s t u u u u u u u u u               ",
"  v w . . + + + . x y z A B u u C D E F             ",
"  v w > > . > > > = G H I J u u K L M N             ",
"  O P = Q . + . . ' G R I S u u T U V               ",
"  w w W X . . + . . x Y Z `  . ...+.@.              ",
"  M M M #.$.@.. + . . + * . ' > %.&.$.              ",
"N M *.=.M -.-.. + . + + + . ' ; ;.&.                ",
"w =.>.      ,.'.'.'.'.).!.F ~.                      ",
"{.v ].      ^.W /.(.'.(.'.'.~.                      ",
"      &.& & & > > > . + _.> &.                      ",
"    &.= >  .:.= . . + + + . &.                      ",
"    + > & #.<.[.+ + + + + . x                       ",
"    . ;     }.[._.+ + , + _.|.                      ",
"    > '     M . > + + 1.+ , x     2.3.4.5.6.7.8.6.9.",
"    0.a.    v b.c.d.e.f.f.d.g.  h.i.j.k.k.k.k.k.l.m.",
"  n.o.p.    q.u r.s.t.u.s.s.v.w.d.x.y.z.A.B.C.D.E.  ",
"  F.G.H.        I.J.J.J.K.K.L.                      ",
"    M.N.        O.x = b.> , [.                      ",
"      P.q.N Q.R.@.S.x X x > T.                      ",
"U.V.).v v w             &., |.                      ",
"t V.t w ].              &.> &.                      ",
"'.W.).                  X.&.S.t                     "};
