/* XPM */
static char * speed_ninja_diagonal_up_xpm[] = {
"30 30 157 2",
"  	c None",
". 	c #141A1B",
"+ 	c #151E1F",
"@ 	c #162122",
"# 	c #22201F",
"$ 	c #182325",
"% 	c #182425",
"& 	c #11272A",
"* 	c #192628",
"= 	c #1A282A",
"- 	c #551C11",
"; 	c #202C2D",
"> 	c #182F32",
", 	c #5C1D10",
"' 	c #222D2D",
") 	c #222D2E",
"! 	c #232D2E",
"~ 	c #591F13",
"{ 	c #232E2F",
"] 	c #242E2E",
"^ 	c #193133",
"/ 	c #242E2F",
"( 	c #1A3134",
"_ 	c #1B3134",
": 	c #242F2F",
"< 	c #252F2F",
"[ 	c #1A3234",
"} 	c #1B3234",
"| 	c #1C3234",
"1 	c #1D3234",
"2 	c #273030",
"3 	c #1D3335",
"4 	c #65200F",
"5 	c #1E3335",
"6 	c #1F3336",
"7 	c #642110",
"8 	c #243233",
"9 	c #243234",
"0 	c #652110",
"a 	c #1E3435",
"b 	c #253233",
"c 	c #1F3435",
"d 	c #1F3436",
"e 	c #233334",
"f 	c #29322C",
"g 	c #243333",
"h 	c #203436",
"i 	c #243334",
"j 	c #2A322C",
"k 	c #213436",
"l 	c #69210F",
"m 	c #223435",
"n 	c #223436",
"o 	c #233434",
"p 	c #213536",
"q 	c #213537",
"r 	c #223536",
"s 	c #223537",
"t 	c #6B220F",
"u 	c #38311C",
"v 	c #2C342D",
"w 	c #6B2414",
"x 	c #353332",
"y 	c #6E2515",
"z 	c #6C2715",
"A 	c #752816",
"B 	c #782918",
"C 	c #7C2A13",
"D 	c #7E2A16",
"E 	c #782D1D",
"F 	c #7B2D1C",
"G 	c #7B2D1D",
"H 	c #7C2D1C",
"I 	c #7C2D1D",
"J 	c #7B2E1D",
"K 	c #7D2E1D",
"L 	c #85311D",
"M 	c #8A301B",
"N 	c #8D3016",
"O 	c #8A311D",
"P 	c #4F4324",
"Q 	c #8B311D",
"R 	c #8C311D",
"S 	c #8A321D",
"T 	c #8C321D",
"U 	c #8D321D",
"V 	c #8E321D",
"W 	c #504525",
"X 	c #8C341A",
"Y 	c #923318",
"Z 	c #8F341A",
"` 	c #8C351B",
" .	c #90351A",
"..	c #90351B",
"+.	c #91351A",
"@.	c #91351B",
"#.	c #93351A",
"$.	c #92361B",
"%.	c #97351A",
"&.	c #94361A",
"*.	c #983519",
"=.	c #95361A",
"-.	c #93371B",
";.	c #973619",
">.	c #95371B",
",.	c #95371C",
"'.	c #99361B",
").	c #96371B",
"!.	c #9A361A",
"~.	c #97371B",
"{.	c #98371A",
"].	c #99371A",
"^.	c #9A371A",
"/.	c #9A371B",
"(.	c #9B3719",
"_.	c #9B371A",
":.	c #9B371B",
"<.	c #99381B",
"[.	c #514F4C",
"}.	c #555352",
"|.	c #826C39",
"1.	c #7B7977",
"2.	c #807D7B",
"3.	c #868482",
"4.	c #9F8445",
"5.	c #888684",
"6.	c #A08847",
"7.	c #8D8B89",
"8.	c #908E8D",
"9.	c #918F8D",
"0.	c #918F8E",
"a.	c #9A9997",
"b.	c #B59A51",
"c.	c #BE9C51",
"d.	c #C2A054",
"e.	c #B4B4B2",
"f.	c #E1B760",
"g.	c #BCBCB9",
"h.	c #DBBA61",
"i.	c #BDBCBA",
"j.	c #DBBB62",
"k.	c #E2BA61",
"l.	c #E3BB62",
"m.	c #E4BB62",
"n.	c #E5BD63",
"o.	c #C1C1BF",
"p.	c #C2C1BF",
"q.	c #E3BF65",
"r.	c #C2C2C0",
"s.	c #E6C165",
"t.	c #C5C5C3",
"u.	c #C7C7C4",
"v.	c #C7C7C5",
"w.	c #C8C8C5",
"x.	c #C9C9C7",
"y.	c #CAC9C7",
"z.	c #CACAC7",
"                    ] < < < < < < / / '                     ",
"                  ; ! / : / < : / < { = $ + .       $.Z ..  ",
"                  ) / / / / / / / / { @ @ @ $       ).=.@.  ",
"                2 : : / / / / { { { { = % * $     <.). .    ",
"                E G J K H I G I H F F B A y - , 0 {.&.      ",
"                ;.!.!.!.!.(.!.!._.!._.!.*.N t l 4 #.        ",
"                {.].^.^.^.^.^.^.:.^./._.'.%.Y C 7   ` X     ",
"                z L O S T U U U R V Q U U M D w ~   -.+.    ",
"                & 8 8 m m m m m e o o e e p } } }   >.&.>.  ",
"                s.v a o o o o o o o o o o s } } }       ,.~.",
"                l.f 5 e o 8 8 o 8 8 o 8 e s } } }           ",
"                q.j 5 o 8 8 o 8 8 o 8 8 8 m } } }           ",
"                6 s o e o o 8 8 o o o 8 a ( } } }           ",
"                d m m m m m e m d d d d 1 ( _ } }           ",
"                  c h s n m o 8 | ( ( ( ( ( }               ",
"                          | } ( ( ( ( ( ( (                 ",
"                            1 } 1 a a a 5 a                 ",
"                                q i i i i 8 m               ",
"i.z.z.                    e 8 8 e 9 i i i 9 o e e           ",
"o.g.e.                    8 o e h k 8 8 8 o o e m           ",
"  9.8.u.v.x.7.3.        b 8 8 e 1 3 8 i b i 8 e n }         ",
"        a.0.t.w.y.5.    o o s } ( } 8 i 9 8 o c 1 }         ",
"          1.o.r.p.2.}.u 6.4.|.> ^ ( r s m s p 3 } (         ",
"                  [.x P k.f.c.^ ^ ^ ^ ^ ^ ^ ^ ^ ^ ^         ",
"                    # W n.m.d.^ 5 h h h d d h d a }         ",
"                        h.j.b.^ d i i b i i 8 n p [         ",
"                              o m g i g i i i d 3 }         ",
"                      q q h p m a |           } } } }       ",
"                    8 8 o n n e 5             1 1 | } }     ",
"                    n e o a }                       } [ (   "};
