/* XPM */
static char * speed_ninja_down_xpm[] = {
"29 30 173 2",
"  	c None",
". 	c #0D0C0D",
"+ 	c #0F0E0E",
"@ 	c #100F0F",
"# 	c #3D1810",
"$ 	c #3C1912",
"% 	c #441911",
"& 	c #421A11",
"* 	c #431A11",
"= 	c #441A11",
"- 	c #2A2121",
"; 	c #431B11",
"> 	c #441B11",
", 	c #461B11",
"' 	c #17292B",
") 	c #2D2423",
"! 	c #182B2D",
"~ 	c #1D2A2B",
"{ 	c #192C2E",
"] 	c #1F2B2C",
"^ 	c #1F2C2D",
"/ 	c #202C2D",
"( 	c #192E30",
"_ 	c #212C2D",
": 	c #202D2D",
"< 	c #222D2E",
"[ 	c #222E2E",
"} 	c #1B3031",
"| 	c #1B3032",
"1 	c #232E2E",
"2 	c #232E2F",
"3 	c #242E2F",
"4 	c #1B3133",
"5 	c #1C3134",
"6 	c #252F2F",
"7 	c #1E3132",
"8 	c #1E3133",
"9 	c #1F3130",
"0 	c #5E2012",
"a 	c #1F3132",
"b 	c #1F3133",
"c 	c #1C3233",
"d 	c #233031",
"e 	c #1C3234",
"f 	c #203133",
"g 	c #243031",
"h 	c #213131",
"i 	c #1D3234",
"j 	c #243032",
"k 	c #253030",
"l 	c #213133",
"m 	c #253031",
"n 	c #223131",
"o 	c #1E3234",
"p 	c #253032",
"q 	c #223132",
"r 	c #23312F",
"s 	c #233131",
"t 	c #233132",
"u 	c #243132",
"v 	c #283131",
"w 	c #6A2112",
"x 	c #692210",
"y 	c #6B220F",
"z 	c #692311",
"A 	c #6C2311",
"B 	c #822D18",
"C 	c #882F16",
"D 	c #883116",
"E 	c #4E4429",
"F 	c #534624",
"G 	c #97321A",
"H 	c #963519",
"I 	c #9A341C",
"J 	c #9B341C",
"K 	c #963619",
"L 	c #9C341C",
"M 	c #9B351D",
"N 	c #9D351C",
"O 	c #983719",
"P 	c #9E351C",
"Q 	c #99371A",
"R 	c #9A371A",
"S 	c #9B3719",
"T 	c #9B371A",
"U 	c #9A381A",
"V 	c #9B381A",
"W 	c #9B391A",
"X 	c #9C391A",
"Y 	c #9D391A",
"Z 	c #9D3A1A",
"` 	c #9D3B1B",
" .	c #9E3B1A",
"..	c #9E3B1B",
"+.	c #756637",
"@.	c #856D38",
"#.	c #846E38",
"$.	c #767268",
"%.	c #7E7D7B",
"&.	c #9C7F42",
"*.	c #848381",
"=.	c #968548",
"-.	c #9C8546",
";.	c #A68745",
">.	c #A78846",
",.	c #A88A47",
"'.	c #A28E4B",
").	c #92918F",
"!.	c #9A9585",
"~.	c #AC954D",
"{.	c #B1974B",
"].	c #A09881",
"^.	c #B09758",
"/.	c #B1994D",
"(.	c #A29C89",
"_.	c #BC9C50",
":.	c #BD9D50",
"<.	c #BD9D51",
"[.	c #BC9F54",
"}.	c #B3A074",
"|.	c #B3A076",
"1.	c #C29F52",
"2.	c #C1A051",
"3.	c #C1A153",
"4.	c #C2A152",
"5.	c #A7A6A4",
"6.	c #C6A454",
"7.	c #CAA656",
"8.	c #B7AB8F",
"9.	c #AEADAC",
"0.	c #CAAC59",
"a.	c #D0AC59",
"b.	c #B8AF97",
"c.	c #B2B2AF",
"d.	c #DAB359",
"e.	c #B7B7B6",
"f.	c #DFB359",
"g.	c #B8B8B6",
"h.	c #B9B8B6",
"i.	c #DBB55D",
"j.	c #DFB55D",
"k.	c #DDB660",
"l.	c #BBBBB9",
"m.	c #E1B85F",
"n.	c #E2B85E",
"o.	c #E1B960",
"p.	c #DEBA60",
"q.	c #E2B960",
"r.	c #E3BA60",
"s.	c #BEBEBC",
"t.	c #E3BB5F",
"u.	c #E2BC6B",
"v.	c #E5BC61",
"w.	c #E4BD62",
"x.	c #E5BD61",
"y.	c #E5BE63",
"z.	c #E5BE64",
"A.	c #E6BE63",
"B.	c #E4C064",
"C.	c #E6C365",
"D.	c #E6C366",
"E.	c #E6C367",
"F.	c #D1C5A7",
"G.	c #E6C467",
"H.	c #E6C468",
"I.	c #E7C467",
"J.	c #CBCBC8",
"K.	c #D5CCAE",
"L.	c #CDCDCB",
"M.	c #E8CB94",
"N.	c #EACD93",
"O.	c #EAD9B4",
"P.	c #EEE0C0",
"                      : < [ 1 1 1 1 1 [ [ [               ",
"                    ^ [ 3 3 3 3 2 3 3 3 3 2 _             ",
"                    < 2 2 3 2 3 3 3 3 3 2 2 [ _           ",
"                  ] 1 3 3 3 3 3 3 3 3 6 3 6 3 / ~         ",
"                  w G J L P L N N N N P P M I B 0         ",
"                  y H Q R R U S U V V U T V R C z         ",
"                  x K O U X ` Z Z Z  ...Y W U D A         ",
"                  - # % & ; * , > & & > , > = $ )         ",
"                  ( ~.}.].@ (.|./.{.8.$.@ b.^.#.4         ",
"                  b p.M.F.@ K.N.x.v.O.!.@ P.u.,.i         ",
"                  b d.f.0.@ . >.y.A.F + @ t.n.;.c         ",
"                  b =.[.i._.:.a.z.w.3.<.6.r.'.+.i         ",
"                  b l -.C.G.I.G.E.G.H.H.D.B.E o 4         ",
"                    8 l u g m m m m g m u q e 5           ",
"                      h t t g g u k u d h e               ",
"                      e b a a b b b b b o !               ",
"              q u g ! ! ! ! ! ! ! { { { ! ! { b q j       ",
"              q m m q q n s n t t t t n t n q n u g f     ",
"              n s   8 q m g g g g g m g m g a b q u b f   ",
"            g m n   4 f m m m m k m m m p g i |   m b b   ",
"            f i 5   } b g g g g g m g g g u e 4   ! e e 4 ",
"            2.9 {   { i 8 b 8 8 8 b b b b 8 ( {   4.1.@.e ",
"            k.r !   ' ' ' ' ' ' ' ! ! ' ! ' ' '   m.j.&.i ",
"            v q f   u g g u u g g g g t g g t t   o.q.7.  ",
"        s.5.        g m m m m m m m m k m m t g           ",
"        e.h.        u m n f t t u u t n h g t q           ",
"      L.*.%.        g m f i           } 8 m g b ' 4       ",
"    J.c.          f b 7 8                 q 7 8 7         ",
"  l.g.5.          8 l b                   f b i i         ",
"L.9.).                                                    "};
