/* XPM */
static char * speed_ninja_diagonal_down_xpm[] = {
"27 30 103 2",
"  	c None",
". 	c #1D1917",
"+ 	c #1E1B19",
"@ 	c #3C1409",
"# 	c #401609",
"$ 	c #24211E",
"% 	c #162728",
"& 	c #4D190B",
"* 	c #4E1A0C",
"= 	c #1A292A",
"- 	c #1B2929",
"; 	c #1B292A",
"> 	c #1D292A",
", 	c #1B2A2A",
"' 	c #1C2A2A",
") 	c #1D2A2A",
"! 	c #1D2A2B",
"~ 	c #1D2A2C",
"{ 	c #1E2A2A",
"] 	c #1B2B2A",
"^ 	c #1E2A2B",
"/ 	c #1F2A2B",
"( 	c #1C2B2B",
"_ 	c #1D2B2A",
": 	c #1D2B2B",
"< 	c #1F2A31",
"[ 	c #1C2B31",
"} 	c #1E2B2A",
"| 	c #1E2B2B",
"1 	c #1E2B2C",
"2 	c #1F2B2A",
"3 	c #1F2B2B",
"4 	c #1F2B2C",
"5 	c #202B2C",
"6 	c #1F2B30",
"7 	c #1F2C2B",
"8 	c #1F2C2C",
"9 	c #202C2B",
"0 	c #202C2C",
"a 	c #202C2D",
"b 	c #212C2C",
"c 	c #212C2D",
"d 	c #222C2D",
"e 	c #212D2D",
"f 	c #60210D",
"g 	c #64230F",
"h 	c #6B250D",
"i 	c #6D2812",
"j 	c #7A2911",
"k 	c #782A11",
"l 	c #7A2B10",
"m 	c #772C14",
"n 	c #7B2B13",
"o 	c #7B2C13",
"p 	c #7D2C13",
"q 	c #7B2D11",
"r 	c #7D2D13",
"s 	c #7D2D15",
"t 	c #7B2E15",
"u 	c #7C2E14",
"v 	c #7C2E15",
"w 	c #6E321C",
"x 	c #7D2E15",
"y 	c #7E2E14",
"z 	c #7E2E15",
"A 	c #7D2F15",
"B 	c #7A3015",
"C 	c #7D2F16",
"D 	c #7E2F13",
"E 	c #7E2F14",
"F 	c #7E2F15",
"G 	c #7F2F15",
"H 	c #7E3016",
"I 	c #832F14",
"J 	c #803017",
"K 	c #7E3118",
"L 	c #813118",
"M 	c #803216",
"N 	c #733624",
"O 	c #8D341A",
"P 	c #8B371B",
"Q 	c #7B7872",
"R 	c #827B6E",
"S 	c #B89644",
"T 	c #D8A54F",
"U 	c #B4ABA3",
"V 	c #D7A753",
"W 	c #D9A750",
"X 	c #B4ADA4",
"Y 	c #B5ADA4",
"Z 	c #B6AFA4",
"` 	c #B7AFA6",
" .	c #C9B25E",
"..	c #C9B359",
"+.	c #BAB2AA",
"@.	c #CCB55D",
"#.	c #E4B44D",
"$.	c #E4B550",
"%.	c #E4B64E",
"&.	c #E5B750",
"*.	c #E6B84F",
"=.	c #E6B951",
"-.	c #FFFFFF",
"                  ) 3 0 ! | ! 4                       ",
"                8 } 8 c 4 7 { 8 4             w L l   ",
"              8 | } | e 8 _ 8 b 3 % %       H q K     ",
"              , = ) ' ; , ( ' ) ~ % %       C         ",
"            G p r D C v p F j E k h i *   f g         ",
"            F y s p u n z M E A J x m & @ # x         ",
"            ) 8 8 3 3 8 8 4 3 | | ) ! %     O I t     ",
"            ..#.| 9 $.[ | ^ | 3 | ^ 8 %       N B o P ",
"             .=.| 8 %.6 | { 4 2 5 / ! %               ",
"            @.&.0 : *.< ) b ^ ^ 3 % %                 ",
"              1 8 3 | 8 _ | | 8 5 % %                 ",
"                7 8 4 2 9 : 3 % % %                   ",
"                  % % % % % % % %                     ",
"                      % % % % % ) | 3 | %             ",
"                      ! 3 : 3 | | 3 8 3 3             ",
"                    % 8 > 3 ) 8 | 3 | 0 | | |         ",
"                  % % % | - 8 3 ) % % 4 4 { : %       ",
"                  % % % 3 5 0 { | % % d 3 ) 8 %       ",
"                > 8 %   8 2 8 8 3 0 %     ) : %       ",
"              ] > % %   % 8 3 7 4 ! %     % % %       ",
"            W T % %     % % % % % % %     % % % %     ",
"          . -.V S       0 7 _ 3 4 4 % % %             ",
"        Z + $         | ! 8 | ^ | 0 { 8 |             ",
"      ` +.          ! e 8 a %     _ 8 | ; % %         ",
"  Q Y R           ! 3 | % % %     % % % 8 % %         ",
"X U               c | ^ %             % 8 | ) %       ",
"                  ) 8 %               % % % % % %     ",
"                  % %                       % % % %   ",
"                % % %                           % %   ",
"              % % % %                         % %     "};
