/* XPM */
static char * speed_ninja_up_xpm[] = {
"24 30 157 2",
"  	c None",
". 	c #090A07",
"+ 	c #0B0A0A",
"@ 	c #090B07",
"# 	c #090B08",
"$ 	c #0A0B07",
"% 	c #0A0B08",
"& 	c #0B0B08",
"* 	c #0B0B09",
"= 	c #0C0B09",
"- 	c #0C0B0A",
"; 	c #0A0C08",
"> 	c #0B0C08",
", 	c #0B0C09",
"' 	c #0C0C09",
") 	c #0C0D09",
"! 	c #0C0D0A",
"~ 	c #0D0D0A",
"{ 	c #0E0D0A",
"] 	c #0D0E0A",
"^ 	c #0D0E0B",
"/ 	c #0E0E0A",
"( 	c #0E0E0B",
"_ 	c #0F0E0B",
": 	c #0F0F0B",
"< 	c #0F0F0C",
"[ 	c #100F0B",
"} 	c #100F0C",
"| 	c #1D0C08",
"1 	c #10100B",
"2 	c #10100C",
"3 	c #220B07",
"4 	c #11100C",
"5 	c #11100D",
"6 	c #11100E",
"7 	c #12100D",
"8 	c #11110C",
"9 	c #11110D",
"0 	c #1F0D09",
"a 	c #270B06",
"b 	c #12110D",
"c 	c #12110E",
"d 	c #280B06",
"e 	c #12120D",
"f 	c #2B0B05",
"g 	c #13120D",
"h 	c #13120E",
"i 	c #13120F",
"j 	c #13130E",
"k 	c #13130F",
"l 	c #14130D",
"m 	c #14130E",
"n 	c #14130F",
"o 	c #141310",
"p 	c #15130F",
"q 	c #14140F",
"r 	c #15140F",
"s 	c #151410",
"t 	c #16140F",
"u 	c #16150F",
"v 	c #161510",
"w 	c #171510",
"x 	c #171610",
"y 	c #171611",
"z 	c #181610",
"A 	c #181611",
"B 	c #181711",
"C 	c #181712",
"D 	c #191711",
"E 	c #191712",
"F 	c #1A1711",
"G 	c #191812",
"H 	c #191813",
"I 	c #1A1811",
"J 	c #1A1812",
"K 	c #1B1811",
"L 	c #1D1716",
"M 	c #0F1B1C",
"N 	c #0F1C1C",
"O 	c #101C1C",
"P 	c #121D1D",
"Q 	c #131D1D",
"R 	c #151F1E",
"S 	c #161F1E",
"T 	c #1F1D1C",
"U 	c #18211F",
"V 	c #19211F",
"W 	c #1C211E",
"X 	c #19221F",
"Y 	c #192220",
"Z 	c #1A221F",
"` 	c #122425",
" .	c #1A2220",
"..	c #122426",
"+.	c #1B221F",
"@.	c #1B2220",
"#.	c #132426",
"$.	c #272014",
"%.	c #122526",
"&.	c #132526",
"*.	c #142526",
"=.	c #152526",
"-.	c #142626",
";.	c #152626",
">.	c #162626",
",.	c #162627",
"'.	c #172627",
").	c #461A0E",
"!.	c #172727",
"~.	c #182727",
"{.	c #192727",
"].	c #182827",
"^.	c #192827",
"/.	c #192828",
"(.	c #1A2828",
"_.	c #1C2827",
":.	c #4D1B0D",
"<.	c #1A2928",
"[.	c #1B2928",
"}.	c #1B2929",
"|.	c #511C0D",
"1.	c #6A2612",
"2.	c #742710",
"3.	c #732913",
"4.	c #7A280E",
"5.	c #732A13",
"6.	c #732A14",
"7.	c #742A14",
"8.	c #742B14",
"9.	c #7B2A10",
"0.	c #7B2A11",
"a.	c #7C2A11",
"b.	c #7B2B10",
"c.	c #7C2B11",
"d.	c #842C0F",
"e.	c #842C10",
"f.	c #852C0F",
"g.	c #852C10",
"h.	c #852D0F",
"i.	c #852D10",
"j.	c #46423A",
"k.	c #44443C",
"l.	c #514224",
"m.	c #4B473D",
"n.	c #58492E",
"o.	c #654E26",
"p.	c #6E5933",
"q.	c #605F57",
"r.	c #675F50",
"s.	c #626258",
"t.	c #64645A",
"u.	c #66655B",
"v.	c #6C6C62",
"w.	c #9C7833",
"x.	c #8A8A7E",
"y.	c #C59840",
"z.	c #D19B37",
"                  M M N N N M M M N N           ",
"                  R R R R R S R S R R           ",
"              P S X X X V Y Y Z Z Z V S O       ",
"            O Q  . . .V Z Z  . . . .X U M       ",
"            O P Z Z Z +.+.W @.+.@.+.@.V M       ",
"            L ).3.6.5.6.8.6.6.6.6.6.7.1.a       ",
"            3 |.e.d.d.i.h.f.f.f.d.e.g.4.f       ",
"            T :.c.9.9.b.c.9.0.a.a.c.c.2.d       ",
"            &.;.[.}./.<.[.[._.}.[.!.-.;...      ",
"            &.;.[.[.[.[.[.[.[.[.<.^.,.,...      ",
"            &.;.(.^.^.{.^.^.^.^.^.!.,.,...      ",
"            %.*.].'.,.'.,.,.'.'.'.;.;.;...      ",
"            %...%.'.'.'.,.,.,.,.,.;.......      ",
"          &.!./.^.........%.%...%.......        ",
"        *.!./.(.^.~.~.!.~.].~.~.!.~.].!.&.      ",
"        ..~.<./.'.[.<.<.[.[.<.[.<.(.<.(.;.-.    ",
"        ../.<./.'.<.(.<.<.<.[.<.[.(.(.[.<.;.    ",
"        ..^.>...&.(.(.<.<.<.<.(.(.>.;.<.<.-.    ",
"    ;.=.^.(.>...&.<.<.<.<.<.(.<.<.>.%.-.<.~.;.&.",
"    *.&.~.!.>.&.&.<.<.<.<.<.<.<.<.>...%.!.'.;.*.",
"    -.*...%.  *.%.^.^.^./.^.^.^./.;...  ..#.#.&.",
"    -.n.z.l.  *.%.............` ....%.  ..y.w.&.",
"  ] j.r.o.$.  ;.%./.^.^./.^./.^./.;.%.%.  p.l.*.",
"' q.u.m.( ~   ;.%.<.^.~.~.~.~.~.(.^.>.`     *.;.",
"k.v.s.k >     ;.%.<.'.;.;.;.;.;.~.(.!.`         ",
"x.t.v         ;.%.<.'.*...` ......!.~.%.        ",
"o i           *.%.(.!.*...    ........`         ",
"              *...-.&.;.      ..;.;.;.`         ",
"            ;.&.` ` ..        ..-.;.*...        ",
"            &.` ..` `         ..%.%.%...        "};
