/* XPM */
static char * speed_ninja_right_xpm[] = {
"26 30 166 2",
"  	c None",
". 	c #0A0908",
"+ 	c #0F1010",
"@ 	c #111313",
"# 	c #111616",
"$ 	c #141E1E",
"% 	c #141E1F",
"& 	c #0D2224",
"* 	c #142022",
"= 	c #142122",
"- 	c #162324",
"; 	c #162325",
"> 	c #162628",
", 	c #172627",
"' 	c #471B15",
") 	c #192829",
"! 	c #19282A",
"~ 	c #1B292A",
"{ 	c #1B292B",
"] 	c #521B0F",
"^ 	c #1B2A2B",
"/ 	c #192B2D",
"( 	c #1D2A2B",
"_ 	c #192C2D",
": 	c #192C2E",
"< 	c #1D2B2C",
"[ 	c #1A2D2F",
"} 	c #1E2C2D",
"| 	c #1F2C2D",
"1 	c #202C2D",
"2 	c #212C2E",
"3 	c #1B2E2F",
"4 	c #222C2D",
"5 	c #1B2E30",
"6 	c #5C1D0D",
"7 	c #232C2D",
"8 	c #1C2E30",
"9 	c #212D2D",
"0 	c #222D2E",
"a 	c #232D2E",
"b 	c #1D2F30",
"c 	c #1D2F31",
"d 	c #222E2E",
"e 	c #232E2E",
"f 	c #232E2F",
"g 	c #1D3031",
"h 	c #242E2F",
"i 	c #252E2F",
"j 	c #1F3031",
"k 	c #1F3032",
"l 	c #631E0E",
"m 	c #252F2F",
"n 	c #252F30",
"o 	c #203132",
"p 	c #203133",
"q 	c #641F0F",
"r 	c #253030",
"s 	c #213133",
"t 	c #651F0F",
"u 	c #661F0E",
"v 	c #223133",
"w 	c #65200F",
"x 	c #223233",
"y 	c #223234",
"z 	c #233233",
"A 	c #233234",
"B 	c #243234",
"C 	c #69200E",
"D 	c #233334",
"E 	c #602418",
"F 	c #652312",
"G 	c #782B1C",
"H 	c #7E2A13",
"I 	c #7B2B15",
"J 	c #7C2B15",
"K 	c #7F2B14",
"L 	c #7B2C1D",
"M 	c #7A2D1D",
"N 	c #7F2D16",
"O 	c #7F2D17",
"P 	c #802D16",
"Q 	c #7E2E18",
"R 	c #822D16",
"S 	c #7D2E1D",
"T 	c #7D2E1E",
"U 	c #7E2E1D",
"V 	c #7E2E1E",
"W 	c #822E16",
"X 	c #812E1A",
"Y 	c #82301B",
"Z 	c #83301B",
"` 	c #84301B",
" .	c #84301C",
"..	c #983519",
"+.	c #993619",
"@.	c #9A3619",
"#.	c #9A3719",
"$.	c #9B3719",
"%.	c #9B371A",
"&.	c #9B381A",
"*.	c #585756",
"=.	c #5B5B5A",
"-.	c #696340",
";.	c #6D643E",
">.	c #6B653A",
",.	c #676564",
"'.	c #6C683D",
").	c #746A3C",
"!.	c #6A6A69",
"~.	c #6B6A6A",
"{.	c #6B6B6A",
"].	c #6D6C6B",
"^.	c #796F3F",
"/.	c #797041",
"(.	c #727272",
"_.	c #767575",
":.	c #767675",
"<.	c #7C7C7B",
"[.	c #858583",
"}.	c #878583",
"|.	c #868685",
"1.	c #888683",
"2.	c #8A8886",
"3.	c #8B8986",
"4.	c #8B8A87",
"5.	c #8C8A88",
"6.	c #8D8B88",
"7.	c #BD9B50",
"8.	c #CBA956",
"9.	c #CCA956",
"0.	c #D0AB57",
"a.	c #CAAD65",
"b.	c #B2B2B0",
"c.	c #D2AF5F",
"d.	c #CAB37B",
"e.	c #DCB25C",
"f.	c #D9B660",
"g.	c #DEB55D",
"h.	c #DFB55D",
"i.	c #DFB65D",
"j.	c #DDB760",
"k.	c #DDB860",
"l.	c #E1BA60",
"m.	c #D4BD85",
"n.	c #D0BE8F",
"o.	c #E5BD63",
"p.	c #C1C2C0",
"q.	c #C2C3C1",
"r.	c #C3C3C2",
"s.	c #E4C166",
"t.	c #C3C4C2",
"u.	c #C3C4C3",
"v.	c #E7C266",
"w.	c #C4C5C3",
"x.	c #C5C5C3",
"y.	c #C5C6C4",
"z.	c #C6C6C4",
"A.	c #E8C467",
"B.	c #C6C7C5",
"C.	c #D9C691",
"D.	c #C7C8C5",
"E.	c #C7C8C6",
"F.	c #C8C8C6",
"G.	c #C9C9C7",
"H.	c #CACAC7",
"I.	c #D0D0CF",
"        h h m m m m r m m m m i                     ",
"        h m n n m m n n n m n h                     ",
"      0 h i h h m i m m m m m h e 4                 ",
"      a f f f f f h h f h h h h f 7                 ",
"      G L S U U S S V T V V T V M E '               ",
"  t C ..+.+.@.@.@.@.@.$.$.$.%.@.+.H l               ",
"  q u +.+.@.+.#.+.+.#.%.&.&.&.#.+.K w               ",
"    6 X `  .Z Y Y Q J N W R P O I F ]               ",
"      x y y y y y g @ @ @ @ @ @ @ @ @               ",
"  : / A A A A A A x k s.l.f.@ @ m.d.= 5             ",
"  : / y y A y y y x p A.o.j.@ @ C.n.> 5             ",
"  : [ x z A A A A A p v.o.k.@ @ c.a.c               ",
"  / / 5 o A A A A A x /.^.).j j ;.-.k               ",
"  > > > b k k A A A A A B A A y v v k               ",
"5 > + > > $ $ A A A A A A A A x v v                 ",
"/ > *       > 8 8 8 8 8 8 5 5                       ",
"_ : /       3 5 5 5 8 5 8 8 5                       ",
"      v x x x y y y A A y y v                       ",
"    v x y j _ x A A A A A A v                       ",
"    A y x b . x A A A A A A x                       ",
"    A x     # x y A A y A y x                       ",
"    y A     > A y A A D A y x     [.p.q.u.w.r.t.w.x.",
"    '.>.& & : s =.!.~.{.{.!.(.  ,.|.y.B.B.B.B.B.E.I.",
"  9.g.e.& & & % b.H.G.F.H.H.D.z.!.*.}.1.2.5.6.4.3.  ",
"  8.i.h.& & & & ]._._._.:.:.<.                      ",
"    0.7.& & & & | 0 e 9 f f d                       ",
"      ! ) ! ~ } | 1 0 1 0 f 0                       ",
"< < { , , -             0 f 0                       ",
"( < ( - ;               0 f 0                       ",
"~ ^ {                   2 0 1 (                     "};
